<svg width="188" height="48" viewBox="0 0 188 48" fill="none" xmlns="http://www.w3.org/2000/svg">
<g clip-path="url(#clip0_2408_92459)">
<path d="M75.5481 48C74.6134 48 73.7337 47.835 72.9089 47.5051C72.0842 47.1752 71.3694 46.6804 70.7646 46.0756C70.1598 45.4708 69.6649 44.756 69.335 43.9313C69.0051 43.1065 68.7852 42.1718 68.7852 41.2371V41.1821C68.7852 40.2474 68.9501 39.3127 69.335 38.488C69.6649 37.6632 70.1598 36.9484 70.7646 36.2886C71.3694 35.6838 72.0842 35.189 72.9639 34.8591C73.7886 34.5292 74.7233 34.3093 75.713 34.3093C76.3728 34.3093 76.9776 34.3642 77.5275 34.5292C78.0773 34.6392 78.5721 34.8591 79.012 35.079C79.4519 35.299 79.8917 35.6289 80.2766 35.9587C80.4965 36.1787 80.7165 36.3986 80.9364 36.6735C81.1014 36.8935 81.0464 37.2234 80.8264 37.3883L78.8471 38.9278C78.6271 39.0928 78.3522 39.0378 78.1323 38.8728C77.8574 38.5429 77.5275 38.323 77.1976 38.1031C76.7577 37.8282 76.2079 37.6632 75.5481 37.6632C75.1082 37.6632 74.6684 37.7732 74.2835 37.9381C73.8986 38.1031 73.5687 38.378 73.2938 38.6529C73.0189 38.9828 72.7989 39.3127 72.634 39.7526C72.469 40.1924 72.4141 40.6323 72.4141 41.1271V41.1821C72.4141 41.677 72.469 42.1168 72.634 42.5567C72.7989 42.9966 73.0189 43.3814 73.2938 43.6563C73.5687 43.9862 73.8986 44.2062 74.2835 44.3711C74.6684 44.5361 75.1082 44.646 75.5481 44.646C75.878 44.646 76.2079 44.5911 76.4828 44.5361C76.7577 44.4811 77.0326 44.3711 77.2526 44.2062C77.4725 44.0412 77.6924 43.8763 77.9123 43.7113C78.1323 43.4914 78.2972 43.3264 78.5172 43.0515L80.8264 44.701C81.0464 44.866 81.1014 45.1959 80.9364 45.4158C80.7165 45.6907 80.4965 45.9106 80.2216 46.1856C79.8367 46.5704 79.4519 46.8453 78.957 47.1203C78.4622 47.3952 77.9673 47.6151 77.3625 47.7251C76.9227 47.89 76.2629 48 75.5481 48Z" fill="white"/>
<path d="M94.184 34.5293H97.0431C97.263 34.5293 97.428 34.6393 97.5379 34.8592L102.707 47.0654C102.872 47.3953 102.597 47.7802 102.212 47.7802H99.4074C99.1874 47.7802 99.0225 47.6702 98.9125 47.4503L98.1977 45.7458C98.1428 45.5808 97.9228 45.4159 97.7029 45.4159H93.3043C93.0843 45.4159 92.9194 45.5259 92.8094 45.7458L92.1496 47.4503C92.0946 47.6702 91.8747 47.7802 91.6548 47.7802H88.9606C88.5757 47.7802 88.3558 47.3953 88.4658 47.0654L93.6342 34.8592C93.7991 34.6393 93.9641 34.5293 94.184 34.5293ZM97.0431 42.6118L95.5586 38.8729L94.074 42.6118H97.0431Z" fill="white"/>
<path d="M110.02 35.0242C110.02 34.7492 110.239 34.5293 110.514 34.5293H115.628C116.452 34.5293 117.222 34.6393 117.882 34.8592C118.542 35.0791 119.147 35.354 119.587 35.7389C120.081 36.1238 120.411 36.6187 120.686 37.1685C120.961 37.7183 121.071 38.3781 121.071 39.0929V39.1479C121.071 39.9176 120.906 40.6324 120.631 41.1822C120.356 41.787 119.971 42.2819 119.477 42.6668C118.982 43.0516 118.377 43.3815 117.662 43.5465C116.947 43.7664 116.233 43.8214 115.408 43.8214H114.088C113.813 43.8214 113.593 44.0413 113.593 44.3162V47.1204C113.593 47.3953 113.373 47.6152 113.099 47.6152H110.514C110.239 47.6152 110.02 47.3953 110.02 47.1204V35.0242ZM115.408 41.0723C116.068 41.0723 116.562 40.9073 116.947 40.6324C117.332 40.3025 117.497 39.9176 117.497 39.3678V39.3128C117.497 38.763 117.332 38.3231 116.947 37.9932C116.562 37.7183 116.068 37.5534 115.408 37.5534H113.703V41.0723H115.408Z" fill="white"/>
<path d="M142.846 37.7183H139.932C139.657 37.7183 139.438 37.4984 139.438 37.2235V35.0242C139.438 34.7492 139.657 34.5293 139.932 34.5293H150.434C150.709 34.5293 150.928 34.7492 150.928 35.0242V37.2235C150.928 37.4984 150.709 37.7183 150.434 37.7183H147.52C147.245 37.7183 147.025 37.9382 147.025 38.2132V47.2303C147.025 47.5053 146.805 47.7252 146.53 47.7252H143.891C143.616 47.7252 143.396 47.5053 143.396 47.2303V38.2132C143.341 37.9382 143.121 37.7183 142.846 37.7183Z" fill="white"/>
<path d="M161.758 34.5293H164.617C164.837 34.5293 165.002 34.6393 165.112 34.8592L170.281 47.0654C170.445 47.3953 170.171 47.7802 169.786 47.7802H166.982C166.762 47.7802 166.597 47.6702 166.487 47.4503L165.772 45.7458C165.717 45.5808 165.497 45.4159 165.277 45.4159H160.878C160.659 45.4159 160.494 45.5259 160.384 45.7458L159.724 47.4503C159.669 47.6702 159.449 47.7802 159.229 47.7802H156.535C156.15 47.7802 155.93 47.3953 156.04 47.0654L161.208 34.8592C161.373 34.6393 161.538 34.5293 161.758 34.5293ZM164.617 42.6118L163.133 38.8729L161.648 42.6118H164.617Z" fill="white"/>
<path d="M177.538 34.5293H180.177C180.452 34.5293 180.672 34.7492 180.672 35.0242V44.0413C180.672 44.3162 180.892 44.5362 181.166 44.5362H186.5C186.775 44.5362 186.995 44.7561 186.995 45.031V47.2303C186.995 47.5053 186.775 47.7252 186.5 47.7252H177.483C177.208 47.7252 176.988 47.5053 176.988 47.2303V35.0242C176.988 34.7492 177.208 34.5293 177.538 34.5293Z" fill="white"/>
<path d="M8.19244 30.5704V5.1134C8.19244 4.83849 7.97251 4.61856 7.69759 4.61856H0.494845C0.219931 4.61856 0 4.39863 0 4.12371V0.494845C0 0.219931 0.219931 0 0.494845 0H22.8179C23.2577 0 23.4777 0.549828 23.2027 0.879725L19.7938 4.50859C19.6838 4.61856 19.5739 4.67354 19.4089 4.67354H14.4055C14.1306 4.67354 13.9107 4.89347 13.9107 5.16838V30.5704C13.9107 30.8454 13.6907 31.0653 13.4158 31.0653H8.74227C8.41237 31.0653 8.19244 30.8454 8.19244 30.5704Z" fill="white"/>
<path d="M37.4998 8.74239C37.3349 8.68741 37.115 8.63242 36.895 8.63242C36.5101 8.57744 36.1253 8.52246 35.6854 8.52246C33.9809 8.52246 32.4964 9.0173 31.1218 10.007C30.2421 10.6668 29.6373 11.4915 29.1425 12.5362V9.56713C29.1425 9.29222 28.9225 9.07229 28.6476 9.07229H24.194C23.9191 9.07229 23.6992 9.29222 23.6992 9.56713L23.7541 30.5705C23.7541 30.8455 23.9741 31.0654 24.249 31.0654H28.7026C28.9775 31.0654 29.1974 30.8455 29.1974 30.5705V19.1341C29.1974 18.0345 29.4174 17.0448 29.8572 16.165C30.2971 15.2853 30.9019 14.5705 31.7266 14.0757C32.5514 13.5259 33.651 13.3059 34.9156 13.3059C35.6854 13.3059 36.4552 13.4159 37.1699 13.6358C37.4998 13.7458 37.8297 13.4709 37.8297 13.141L37.8847 9.23723C37.8847 9.0173 37.7198 8.79737 37.4998 8.74239Z" fill="white"/>
<path d="M61.9093 9.01711H57.5656C57.2907 9.01711 57.0708 9.23705 57.0708 9.51196V12.371C56.521 11.3264 55.7512 10.5016 54.7615 9.84186C53.387 8.90715 51.7375 8.46729 49.923 8.46729C47.9986 8.46729 46.2942 8.96213 44.8646 9.95182C43.3801 10.9415 42.2804 12.2611 41.4557 14.0205C40.6309 15.725 40.2461 17.7593 40.2461 20.1236C40.2461 22.4329 40.6309 24.4123 41.4557 26.1167C42.2804 27.8212 43.3801 29.1408 44.8646 30.0205C46.3492 30.9552 48.0536 31.3951 49.978 31.3951C51.8474 31.3951 53.4419 30.9552 54.8165 30.0755C55.8062 29.4157 56.576 28.591 57.1258 27.5463V30.5703C57.1258 30.8453 57.3457 31.0652 57.6206 31.0652H61.9643C62.2392 31.0652 62.4591 30.8453 62.4591 30.5703V9.56694C62.4041 9.23705 62.1842 9.01711 61.9093 9.01711ZM55.5863 25.292C54.5966 26.5566 53.222 27.1614 51.4076 27.1614C49.5931 27.1614 48.1636 26.5566 47.1189 25.292C46.0742 24.0824 45.5794 22.3229 45.5794 20.0136C45.5794 17.7044 46.0742 15.8899 47.1189 14.6253C48.1636 13.3607 49.5382 12.7009 51.4076 12.7009C53.222 12.7009 54.5966 13.3057 55.5863 14.5703C56.576 15.78 57.0708 17.5944 57.0708 19.9587C57.0708 22.2679 56.576 24.0824 55.5863 25.292Z" fill="white"/>
<path d="M81.0992 8.46729C79.2847 8.46729 77.6902 8.90714 76.3157 9.73188C75.216 10.3916 74.3363 11.3813 73.6765 12.536V9.51196C73.6765 9.23705 73.4566 9.01711 73.1816 9.01711H68.948C68.673 9.01711 68.4531 9.23705 68.4531 9.51196C68.5631 12.591 68.4531 27.5463 68.4531 30.5154C68.4531 30.7903 68.673 31.0102 68.948 31.0102H73.4016C73.6765 31.0102 73.8964 30.7903 73.8964 30.5154V18.5841C73.8964 16.8246 74.3913 15.4501 75.381 14.3504C76.3706 13.3057 77.7452 12.7559 79.3947 12.7559C80.7693 12.7559 81.8139 13.1408 82.4737 13.9655C83.1335 14.7903 83.4634 15.9999 83.4634 17.7593V30.5703C83.4634 30.8453 83.6834 31.0652 83.9583 31.0652H88.4119C88.6868 31.0652 88.9067 30.8453 88.9067 30.5703V17.5394C88.9617 11.4913 86.3225 8.46729 81.0992 8.46729Z" fill="white"/>
<path d="M116.617 30.5703V5.22331C116.617 5.11335 116.672 4.9484 116.782 4.89342L121.235 0.219874C121.565 -0.110022 122.115 0.109909 122.115 0.549771V30.5703C122.115 30.8453 121.895 31.0652 121.62 31.0652H117.166C116.892 31.0652 116.617 30.8453 116.617 30.5703Z" fill="white"/>
<path d="M186.888 30.2406L176.991 19.629L186.118 9.95194C186.448 9.62205 186.173 9.07222 185.733 9.07222H180.51C180.345 9.07222 180.235 9.1272 180.125 9.23717L171.218 18.8042V0.4949C171.218 0.0550378 170.668 -0.164894 170.338 0.11002L165.884 4.56363C165.774 4.67359 165.719 4.78356 165.719 4.94851V30.5705C165.719 30.8455 165.939 31.0654 166.214 31.0654H170.668C170.943 31.0654 171.163 30.8455 171.163 30.5705V20.8936L180.675 30.9554C180.785 31.0654 180.895 31.1204 181.059 31.1204H186.503C186.943 31.0654 187.218 30.5156 186.888 30.2406Z" fill="white"/>
<path d="M110.349 20.7285C109.36 19.6839 107.765 18.9691 105.566 18.4742L101.882 17.5395C100.837 17.3196 100.123 16.9897 99.6823 16.6048C99.2424 16.2199 99.0225 15.7251 99.0225 15.0653C99.0225 14.2406 99.3524 13.6357 100.068 13.1409C100.782 12.701 101.717 12.4261 102.982 12.4261C104.136 12.4261 105.236 12.6461 106.391 13.0309C106.831 13.1959 107.215 13.3608 107.655 13.5808C107.875 13.6907 108.095 13.6357 108.26 13.4708L110.404 11.1615C110.624 10.9416 110.569 10.5567 110.349 10.3918C109.525 9.84196 108.59 9.4021 107.545 9.0722C106.116 8.57735 104.576 8.35742 102.982 8.35742C101.167 8.35742 99.5723 8.63234 98.1978 9.23715C96.8232 9.84196 95.7785 10.6117 95.0088 11.6564C94.239 12.701 93.8541 13.8557 93.8541 15.2302C93.8541 16.8247 94.349 18.1443 95.3387 19.189C96.3283 20.2337 97.8679 20.9485 99.8473 21.3883L103.532 22.2131C104.741 22.488 105.566 22.8729 106.061 23.2577C106.556 23.6426 106.776 24.1924 106.776 24.8522C106.776 25.622 106.446 26.2268 105.731 26.6667C105.016 27.1065 104.026 27.3265 102.652 27.3265C101.167 27.3265 99.7373 27.1065 98.3627 26.6667C97.8129 26.5017 97.2631 26.2818 96.7132 26.0069C96.4933 25.8969 96.2734 25.9519 96.1084 26.1168L93.9091 28.4261C93.6892 28.6461 93.7442 29.0309 94.0191 29.1959C96.2184 30.5704 99.0775 31.2852 102.542 31.2852C106.281 31.2852 109.03 30.2406 110.679 28.1512C111.229 27.4364 111.559 26.5567 111.669 25.677C111.999 23.6426 111.504 21.9381 110.349 20.7285Z" fill="white"/>
<path d="M130.805 47.9451C129.155 47.9451 127.781 46.5706 127.781 44.9211C127.781 43.2716 129.155 41.897 130.805 41.897C132.454 41.897 133.829 43.2716 133.829 44.9211C133.829 46.5706 132.454 47.9451 130.805 47.9451Z" fill="white"/>
<path d="M128 38.4331V9.56712C128 9.29221 128.22 9.07227 128.495 9.07227H132.948C133.223 9.07227 133.443 9.29221 133.443 9.56712V38.4331C133.443 38.708 133.223 38.9279 132.948 38.9279H128.495C128.22 38.9279 128 38.708 128 38.4331Z" fill="white"/>
<path d="M130.803 0C132.452 0 133.827 1.37457 133.827 3.02405C133.827 4.67354 132.452 6.04811 130.803 6.04811C129.153 6.04811 127.779 4.67354 127.779 3.02405C127.724 1.37457 129.099 0 130.803 0Z" fill="white"/>
<path d="M152.083 8.46729C150.268 8.46729 148.674 8.90714 147.299 9.73188C146.199 10.3916 145.321 11.3813 144.661 12.536V9.51196C144.661 9.23705 144.44 9.01711 144.165 9.01711H139.932C139.657 9.01711 139.438 9.23705 139.438 9.51196C139.546 12.591 139.438 27.5463 139.438 30.5154C139.438 30.7903 139.657 31.0102 139.932 31.0102H144.385C144.66 31.0102 144.881 30.7903 144.881 30.5154V18.5841C144.881 16.8246 145.376 15.4501 146.365 14.3504C147.355 13.3057 148.73 12.7559 150.379 12.7559C151.754 12.7559 152.798 13.1408 153.458 13.9655C154.118 14.7903 154.448 15.9999 154.448 17.7593V30.5703C154.448 30.8453 154.668 31.0652 154.943 31.0652H159.396C159.671 31.0652 159.891 30.8453 159.891 30.5703V17.5394C159.946 11.4913 157.306 8.46729 152.083 8.46729Z" fill="white"/>
</g>
<defs>
<clipPath id="clip0_2408_92459">
<rect width="188" height="48" fill="white"/>
</clipPath>
</defs>
</svg>
