<svg width="162" height="42" viewBox="0 0 162 42" fill="none" xmlns="http://www.w3.org/2000/svg">
<path d="M84.6073 41.3372C77.0944 41.3372 76.628 36.9309 78.016 31.9232H84.0843C83.494 34.6874 83.1178 37.0104 86.4527 37.0104C88.5033 37.0104 89.7891 35.6899 90.2081 33.7247C91.3178 28.5175 79.1725 28.1977 81.0103 19.583C81.9747 15.0567 84.9139 11.4511 92.3065 11.4511C98.2131 11.4511 100.582 14.0943 98.8901 20.1457H92.9835C93.4452 17.981 93.5536 15.7776 91.1033 15.7776C89.1346 15.7776 87.7389 16.8603 87.312 18.8617C86.1403 24.3496 98.4567 23.869 96.5167 32.9647C94.9184 40.4569 89.227 41.3372 84.6073 41.3372ZM120.077 40.8567L126.247 11.9323H142.078L141.129 16.3795H131.366L129.845 23.5103H138.844L137.895 27.9571H128.894L127.094 36.411H137.178L136.23 40.8567H120.077ZM114.174 23.5101L116.645 11.9317H122.712L116.541 40.8587H110.477L113.229 27.9573H106.277L103.525 40.8587H97.4573L103.626 11.9317H109.694L107.225 23.5101H114.174ZM68.919 20.1458L58.7482 40.8588H52.6313L66.8358 11.9323H74.8318L76.5381 40.8588H70.1451L68.919 20.1458ZM154.604 11.9299C162.559 11.9299 162.919 17.2188 160.996 26.2335C160.047 30.6828 158.56 40.8568 148.192 40.8568H138.31C140.366 31.2144 142.422 21.5713 144.479 11.9299H154.604ZM154.815 26.3943C155.949 21.066 156.951 16.3793 152.732 16.3793H149.597C148.174 23.0558 146.75 29.7324 145.325 36.4111H148.258C151.955 36.4111 153.267 33.6454 154.815 26.3943ZM51.1866 40.8588H45.1212L47.872 27.9581H40.9205L38.1694 40.8588H32.1007L38.2719 11.9326H44.3377L41.8686 23.5102H48.8204L51.2888 11.9326H57.3546L51.1866 40.8588ZM20.0297 23.5101L21.5496 16.3793H14.601L13.0781 23.5101H20.0297ZM33.6826 16.3793H27.6176L26.0972 23.5101H32.1623L31.2134 27.958H25.1491L22.3955 40.8587H16.3301L19.0808 27.958H12.1304L9.37897 40.8587H3.31285L6.06395 27.958H0L0.948081 23.5101H7.01203L8.532 16.3793H2.46805L3.4165 11.9325H9.48081L11.9499 0.361328H18.0153L15.5487 11.9325H22.5002L24.9676 0.361328H31.0341L28.5667 11.9325H34.6314L33.6826 16.3793Z" fill="white"/>
</svg>
