<svg width="134" height="40" viewBox="0 0 134 40" fill="none" xmlns="http://www.w3.org/2000/svg">
<path fill-rule="evenodd" clip-rule="evenodd" d="M49.2869 10.2319V21.6294H38.0404V11.6981C38.0404 10.8883 37.3834 10.2319 36.5733 10.2319H32.7773V37.3924C32.7773 38.2023 33.4339 38.8589 34.2444 38.8589H38.0404V26.226H49.2869V37.3924C49.2869 38.2023 49.9434 38.8589 50.7539 38.8589H54.5497V11.6981C54.5497 10.8883 53.8929 10.2319 53.0824 10.2319H49.2869Z" fill="white"/>
<path fill-rule="evenodd" clip-rule="evenodd" d="M71.3515 16.981V30.5465C71.3515 31.7791 70.7226 32.9477 69.6549 33.5643C66.6747 35.2855 63.5907 33.1354 63.5907 30.3006V18.4472C63.5907 17.6374 62.9339 16.981 62.1236 16.981H58.3125V30.7839C58.3125 35.2253 61.9478 38.8589 66.391 38.8589H68.5511C72.9945 38.8589 76.6296 35.2253 76.6296 30.7839V18.4472C76.6296 17.6374 75.973 16.981 75.1629 16.981H71.3515Z" fill="white"/>
<path fill-rule="evenodd" clip-rule="evenodd" d="M129.897 38.8595H133.693V19.6492C133.693 18.839 133.035 18.1826 132.225 18.1826H128.43V37.393C128.43 38.2031 129.086 38.8595 129.897 38.8595Z" fill="white"/>
<path fill-rule="evenodd" clip-rule="evenodd" d="M131.062 16.1007C132.684 16.1007 133.999 14.7861 133.999 13.1647C133.999 11.5432 132.684 10.229 131.062 10.229C129.44 10.229 128.125 11.5432 128.125 13.1647C128.125 14.7861 129.44 16.1007 131.062 16.1007Z" fill="white"/>
<path fill-rule="evenodd" clip-rule="evenodd" d="M95.1595 29.7761C95.1595 32.386 93.0236 34.1233 90.4124 34.1233C87.8013 34.1233 85.665 32.386 85.665 29.7761V26.0518C85.665 23.4417 87.8013 21.7044 90.4124 21.7044C93.0236 21.7044 95.1595 23.4417 95.1595 26.0518V29.7761ZM90.4124 16.9683C84.8918 16.9683 80.375 20.9155 80.375 26.4334V29.4179C80.375 34.9358 84.8918 38.8596 90.4124 38.8596C95.9327 38.8596 100.45 34.9358 100.45 29.4179V26.4334C100.45 20.9155 95.9327 16.9683 90.4124 16.9683Z" fill="white"/>
<path fill-rule="evenodd" clip-rule="evenodd" d="M119.047 29.7751C119.047 32.3852 116.91 34.1225 114.299 34.1225C111.688 34.1225 109.552 32.3852 109.552 29.7751V26.0509C109.552 23.4409 111.688 21.7036 114.299 21.7036C116.91 21.7036 119.047 23.4409 119.047 26.0509V29.7751ZM114.299 16.9674C112.574 16.9674 110.947 17.353 109.525 18.0516V11.6735C109.525 10.8634 108.868 10.207 108.058 10.207H104.262V29.4171C104.262 34.9352 108.779 38.8587 114.299 38.8587C119.82 38.8587 124.337 34.9352 124.337 29.4171V26.4325C124.337 20.9146 119.82 16.9674 114.299 16.9674Z" fill="white"/>
<path fill-rule="evenodd" clip-rule="evenodd" d="M17.0106 12.2193C17.0106 6.51865 14.2323 1.6164 12.1192 0.0200298C12.1105 0.0150087 11.9574 -0.0710192 11.9705 0.156938L11.9675 0.163968C11.792 11.1705 6.16646 14.1537 3.07375 18.1723C-4.06349 27.4458 2.57408 37.6133 9.3332 39.4924C13.1151 40.5439 8.45981 37.6321 7.86036 31.4815C7.13531 24.0476 17.0106 18.3732 17.0106 12.2193Z" fill="white"/>
<path fill-rule="evenodd" clip-rule="evenodd" d="M20.2512 15.9665C20.2079 15.937 20.1462 15.9169 20.1038 15.9872C19.9875 17.3727 18.5716 20.3365 16.7769 23.0579C10.6899 32.2891 14.1587 36.739 16.1091 39.1291C17.2418 40.5165 16.1091 39.1291 18.94 37.7111C19.1617 37.6001 24.4634 34.6282 25.0375 27.8572C25.5933 21.3002 21.6533 17.1672 20.2512 15.9665Z" fill="white"/>
</svg>
