<svg width="156" height="51" viewBox="0 0 156 51" fill="none" xmlns="http://www.w3.org/2000/svg">
<g clip-path="url(#clip0_2386_92525)">
<path d="M28.7742 0.0863231C27.6822 0.500322 27.0426 1.27364 26.8398 2.4219L26.7618 2.92183L20.2878 4.39816L13.8216 5.8745L13.6968 5.67922C13.4394 5.28084 12.8856 4.74186 12.519 4.54658C11.0604 3.75764 9.18839 4.35911 8.48639 5.85107C8.29919 6.23382 8.27579 6.39786 8.27579 7.13993C8.27579 7.90544 8.29919 8.02261 8.49419 8.40536C8.61899 8.6397 8.85299 8.96778 9.01679 9.13962L9.32099 9.45989L6.43499 15.4433L3.55679 21.4346L2.85479 21.4268C2.24639 21.4268 2.09819 21.4502 1.62239 21.6768C0.998387 21.9736 0.522587 22.4188 0.218387 23.0047C0.00778748 23.3953 -0.0078125 23.5046 -0.0078125 24.317C-0.0078125 25.0825 0.0155875 25.2543 0.179387 25.5824C0.475787 26.1761 0.951587 26.6604 1.54439 26.9494C2.02799 27.1915 2.14499 27.215 2.81579 27.215H3.54899L6.32579 33.0032C7.85459 36.1902 9.14159 38.8851 9.19619 38.9944C9.27419 39.1819 9.25079 39.2366 8.99339 39.51C8.82959 39.6818 8.61119 40.0021 8.48639 40.2364C8.28359 40.6036 8.26799 40.7285 8.26799 41.5331C8.26799 42.2986 8.29139 42.4626 8.45519 42.7985C9.46139 44.806 12.246 45.0404 13.5018 43.2203C13.7046 42.9313 13.845 42.7907 13.9308 42.822C14.001 42.8454 16.8636 43.4937 20.28 44.2749C23.7042 45.056 26.559 45.7043 26.6292 45.7278C26.7228 45.7512 26.7852 45.8996 26.8164 46.1886C26.9334 47.1182 27.5886 48.0321 28.431 48.4227C28.8678 48.6336 29.0004 48.657 29.7258 48.657C30.4668 48.657 30.576 48.6336 31.0284 48.407C31.6368 48.1024 32.175 47.5166 32.4168 46.8995C32.6352 46.3371 32.6586 45.3294 32.4636 44.8217L32.3466 44.4858L37.011 40.7598C39.5772 38.7054 41.9172 36.8463 42.2136 36.612L42.7518 36.1902L43.2978 36.4714C44.0076 36.8229 44.616 36.901 45.3336 36.7135C46.6908 36.3698 47.5176 35.2919 47.5176 33.878C47.5176 33.1672 47.3226 32.5892 46.8936 32.0267C46.6362 31.6909 46.0746 31.3003 45.6144 31.1441L45.2556 31.0269V24.317C45.2556 17.9039 45.2634 17.6071 45.4038 17.6071C45.7002 17.6071 46.3944 17.1775 46.7766 16.7556C47.5176 15.9433 47.7438 14.7638 47.346 13.7327C47.1198 13.1234 46.5114 12.4516 45.9186 12.1626C45.5052 11.9595 45.3726 11.9361 44.655 11.9361C43.9062 11.9361 43.8126 11.9517 43.3212 12.1938C43.0248 12.3423 42.7674 12.4594 42.744 12.4594C42.7128 12.4594 40.3572 10.5925 37.518 8.31944L32.3388 4.17945L32.448 3.91386C32.8692 2.89839 32.5026 1.383 31.668 0.672171C31.1142 0.211304 30.654 0.0472666 29.835 0.0238327C29.328 -0.0074125 28.977 0.0160214 28.7742 0.0863231ZM26.8944 4.23413C26.9178 4.26537 25.662 5.31209 24.1098 6.56189L21.2784 8.81155L18.6654 8.21789C14.274 7.21804 14.2584 7.21023 14.2584 7.10868C14.2584 7.04619 15.951 6.61657 19.305 5.85888C22.074 5.22616 24.843 4.58563 25.467 4.44503C26.6838 4.1482 26.832 4.13258 26.8944 4.23413ZM27.7602 5.4605C27.7446 5.52299 27.2766 6.52284 26.7228 7.67891C26.013 9.14744 25.6698 9.79577 25.584 9.78796C25.2564 9.78015 22.9164 9.18649 22.932 9.11619C22.9632 8.99121 27.612 5.30427 27.7056 5.32771C27.7524 5.33552 27.7758 5.39801 27.7602 5.4605ZM36.8082 9.31147C41.1762 12.8031 42.003 13.4983 41.7378 13.4905C41.5116 13.4827 34.7802 11.8892 34.7256 11.8345C34.5852 11.6939 31.6134 5.40582 31.6524 5.34333C31.6758 5.31209 31.7226 5.28865 31.7538 5.30427C31.8006 5.3199 34.0704 7.12431 36.8082 9.31147ZM29.1096 8.26476C29.1096 9.54581 29.094 10.6003 29.0784 10.6003C28.977 10.6003 26.9958 10.1238 26.9724 10.0926C26.9022 10.0223 28.899 5.93699 29.0004 5.93699C29.0862 5.92918 29.1096 6.41348 29.1096 8.26476ZM31.863 8.72562C32.604 10.2645 33.1968 11.5143 33.1812 11.5221C33.1734 11.5299 32.526 11.3971 31.746 11.2174L30.3186 10.8894V8.41317C30.3186 6.46035 30.342 5.93699 30.42 5.93699C30.4746 5.92918 31.122 7.1868 31.863 8.72562ZM17.0118 9.06932C18.5718 9.42083 19.89 9.73328 19.9524 9.75672C20.0148 9.78015 19.617 10.1551 18.9072 10.7175L17.7528 11.6392L17.433 11.3737C17.2536 11.2252 16.3956 10.5457 15.5298 9.84264C14.6562 9.14744 13.9386 8.54597 13.9386 8.4991C13.9386 8.46004 13.9932 8.42879 14.0556 8.42879C14.1258 8.42879 15.4518 8.71781 17.0118 9.06932ZM15.0228 11.0065C16.4502 12.147 16.731 12.4047 16.6452 12.4907C16.5906 12.5454 16.1928 12.8656 15.7794 13.2015C15.249 13.6311 14.9994 13.7795 14.9604 13.7092C14.7342 13.2952 13.0494 9.70985 13.0494 9.63174C13.0494 9.45208 13.2834 9.61611 15.0228 11.0065ZM12.9714 12.3657L14.0322 14.5763L13.7514 14.8184C13.5954 14.9434 13.065 15.373 12.5814 15.7636L11.6922 16.4666V13.3421C11.6922 10.9128 11.7156 10.202 11.7936 10.1707C11.8404 10.1551 11.895 10.1395 11.9028 10.1473C11.9106 10.1473 12.3942 11.1549 12.9714 12.3657ZM23.4858 10.5535C24.3906 10.7644 25.1316 10.9284 25.1394 10.9362C25.1628 10.9675 22.8852 15.6543 22.8462 15.6543C22.7292 15.6543 18.7512 12.4047 18.8058 12.3579C19.2582 11.9126 21.6294 10.116 21.723 10.1395C21.7854 10.1707 22.581 10.3582 23.4858 10.5535ZM10.5612 13.7873L10.5534 17.3884L7.77659 19.6068C6.24779 20.8175 4.96079 21.8252 4.89059 21.8408C4.82819 21.8564 4.78139 21.8252 4.78139 21.7783C4.78139 21.7002 9.14159 12.561 10.0074 10.8191C10.5612 9.70985 10.5612 9.70985 10.5612 13.7873ZM27.768 11.5377L29.1096 11.8345L29.094 14.7716L29.0706 17.7164L27.6276 18.0445L26.1846 18.3726L25.038 17.4509C24.4062 16.9431 23.8914 16.4901 23.8914 16.4432C23.8914 16.3416 26.325 11.2487 26.3796 11.2409C26.403 11.2409 27.0192 11.3658 27.768 11.5377ZM32.1204 12.5297C33.0876 12.7563 33.8832 12.9437 33.8988 12.9594C34.0236 13.1234 35.4354 16.2089 35.3886 16.2401C35.3574 16.2713 34.2654 16.5369 32.9628 16.8259C31.6602 17.1228 30.5292 17.3806 30.459 17.404C30.3186 17.443 30.3108 17.2868 30.3108 14.7872C30.3108 13.3265 30.3186 12.1235 30.3342 12.1235C30.3498 12.1235 31.161 12.311 32.1204 12.5297ZM20.1786 15.1231C21.333 16.0448 22.2846 16.8259 22.2846 16.865C22.2846 16.8962 21.996 17.5133 21.6528 18.2398L21.0132 19.5521L19.7028 19.8567C18.9774 20.0208 18.3222 20.1536 18.2286 20.1614C18.0882 20.1614 17.979 19.9895 17.6358 19.2553C17.394 18.7631 16.8324 17.5915 16.38 16.6463L15.5532 14.9434L16.653 14.0686C17.706 13.2171 17.7528 13.1937 17.9166 13.3187C18.0024 13.3968 19.0242 14.2092 20.1786 15.1231ZM39.9516 14.3185C41.0124 14.5607 41.4336 14.6856 41.4336 14.7716C41.4336 14.8575 40.794 15.0372 39.0624 15.4277C37.7598 15.7246 36.6834 15.9667 36.6756 15.9589C36.6678 15.9511 36.3792 15.3418 36.0282 14.6075L35.3964 13.2796L36.933 13.6233C37.7754 13.8186 39.1326 14.131 39.9516 14.3185ZM15.7482 18.1382C16.3488 19.3959 16.809 20.4426 16.7778 20.4894C16.7388 20.5207 15.6234 20.7941 14.2974 21.0909C12.9714 21.3877 11.8404 21.6533 11.7936 21.669C11.7156 21.7002 11.6922 21.3096 11.6922 19.8645V18.0211L13.1196 16.8884C13.8996 16.2635 14.5626 15.7792 14.5938 15.8105C14.625 15.8417 15.1476 16.8962 15.7482 18.1382ZM41.7846 16.1776C41.769 16.2401 40.9656 16.9275 39.9906 17.7008L38.2278 19.1068L37.7676 18.2007C37.5102 17.693 37.2918 17.2321 37.284 17.1853C37.2684 17.115 37.9314 16.9275 39.39 16.5838C41.769 16.0214 41.8236 16.0136 41.7846 16.1776ZM42.705 17.3337C42.666 17.5133 40.0764 22.8172 40.0296 22.8172C39.9984 22.8172 39.936 22.7391 39.8892 22.6297C39.8424 22.536 39.5616 21.958 39.273 21.3409L38.7504 20.2317L40.6536 18.7085C42.3852 17.3337 42.7518 17.0837 42.705 17.3337ZM36.621 18.6069C36.9486 19.3099 37.2216 19.8802 37.2216 19.8958C37.2216 19.9036 36.2544 20.6847 35.0766 21.6221C33.891 22.5594 32.8692 23.3718 32.799 23.4421C32.6898 23.5359 32.526 23.4265 31.4964 22.6063L30.3186 21.669V20.1614V18.6538L30.9426 18.5132C31.278 18.4351 32.5416 18.1461 33.7272 17.8727C34.9206 17.5915 35.919 17.3649 35.9502 17.3571C35.9814 17.3493 36.2778 17.9117 36.621 18.6069ZM24.2736 18.396C24.5076 18.5835 24.5856 18.685 24.5154 18.7241C24.4608 18.7553 24.0474 18.8647 23.6106 18.9584C23.166 19.0522 22.7448 19.1537 22.6746 19.1693C22.5732 19.2006 22.6278 19.0209 22.9164 18.4038L23.2908 17.5993L23.6106 17.8648C23.7822 18.0133 24.0864 18.2476 24.2736 18.396ZM44.0466 24.3014C44.0466 29.5037 44.0232 30.7769 43.9452 30.8082C43.875 30.8316 43.3524 29.824 42.3228 27.6837C41.4804 25.9417 40.7784 24.4498 40.7706 24.3873C40.7316 24.1998 43.8048 17.8414 43.9452 17.8414C44.031 17.8336 44.0466 18.9584 44.0466 24.3014ZM10.53 21.9189C10.4676 21.9814 5.70179 23.0516 5.66279 23.0125C5.58479 22.9266 5.89679 22.6532 8.15099 20.8488L10.5222 18.9662L10.5456 20.4191C10.5534 21.2159 10.5456 21.8955 10.53 21.9189ZM29.1096 19.8099C29.1096 20.4582 29.0862 20.6379 29.016 20.5988C28.9614 20.5598 28.5636 20.2629 28.1502 19.9348L27.3936 19.3334L28.1112 19.1537C29.2032 18.8881 29.1096 18.8256 29.1096 19.8099ZM27.495 20.9737L29.1096 22.2626V24.3326V26.4026L27.5106 27.668C26.6292 28.3711 25.857 28.9413 25.8024 28.9413C25.5762 28.9413 21.84 28.0586 21.8166 28.0039C21.8088 27.9727 21.4032 27.1291 20.9274 26.1292L20.0616 24.3248L20.9352 22.5048C21.4188 21.5049 21.8322 20.6691 21.8634 20.6379C21.9102 20.591 25.545 19.7161 25.779 19.7005C25.8336 19.6849 26.6058 20.2629 27.495 20.9737ZM20.28 21.0284C20.28 21.13 19.4532 22.825 19.3986 22.825C19.3752 22.825 19.188 22.4891 18.9774 22.0751L18.6108 21.3253L19.3518 21.1534C20.1864 20.9659 20.28 20.9425 20.28 21.0284ZM38.61 22.7469L39.3666 24.317L38.5944 25.9417C38.1654 26.8322 37.7832 27.5587 37.7442 27.5431C37.5882 27.5118 33.696 24.3873 33.7116 24.3248C33.7506 24.1998 37.7442 21.0597 37.7988 21.1144C37.8222 21.1456 38.1888 21.8799 38.61 22.7469ZM18.0492 22.9266C18.3846 23.6452 18.6654 24.2623 18.6654 24.3092C18.6654 24.4888 17.4252 27.0041 17.3394 27.0041C17.2458 27.0041 12.0822 25.8324 11.8248 25.7465C11.7 25.7074 11.6766 25.5668 11.6766 24.3092V22.9188L12.4644 22.7391C12.8934 22.6376 14.1492 22.3485 15.249 22.0908C16.3566 21.8408 17.3004 21.6221 17.3394 21.6221C17.394 21.6221 17.706 22.2079 18.0492 22.9266ZM10.5456 25.4418C10.5222 25.4574 7.83119 24.8638 6.16979 24.4654C6.06839 24.442 5.98259 24.3795 5.98259 24.317C5.98259 24.2467 6.71579 24.0436 8.25239 23.6921L10.5144 23.1765L10.5378 24.2936C10.5534 24.9106 10.5534 25.4262 10.5456 25.4418ZM31.6212 24.2701C31.668 24.317 31.1766 24.7544 30.42 25.3403C30.342 25.3949 30.3186 25.184 30.3186 24.317V23.2156L30.9426 23.7155C31.278 23.9889 31.59 24.2389 31.6212 24.2701ZM34.9128 26.8869C36.114 27.8477 37.128 28.6523 37.1592 28.6913C37.2294 28.7538 36.0594 31.2612 35.958 31.2612C35.88 31.2612 30.6696 30.0739 30.459 30.0036C30.3342 29.9646 30.3108 29.8161 30.3108 28.457L30.3186 26.9494L31.4574 26.0511C32.0814 25.5512 32.6274 25.145 32.6586 25.145C32.6898 25.145 33.7116 25.9339 34.9128 26.8869ZM8.00279 26.1136C9.16499 26.3792 10.1946 26.6135 10.296 26.6369C10.4754 26.676 10.4754 26.6916 10.4754 28.168V29.6521L8.06519 27.7227C6.73919 26.6604 5.65499 25.7543 5.65499 25.7152C5.66279 25.5902 5.77979 25.6137 8.00279 26.1136ZM19.8822 26.7541L20.3346 27.6993L19.6872 27.5509C19.3284 27.4728 19.0008 27.3946 18.954 27.3946C18.915 27.3946 18.8292 27.3634 18.7668 27.3243C18.681 27.2697 18.7278 27.1056 18.993 26.5198C19.188 26.1214 19.3596 25.7855 19.383 25.7855C19.4064 25.7855 19.6326 26.2229 19.8822 26.7541ZM41.379 28.5038C42.0966 29.9958 42.6816 31.269 42.6816 31.3159C42.6816 31.3706 42.6504 31.4175 42.6114 31.4175C42.5178 31.4175 38.7894 28.4492 38.7894 28.3711C38.7894 28.2851 39.9906 25.7933 40.0374 25.7933C40.053 25.7933 40.6536 27.0197 41.379 28.5038ZM7.73759 29.0194L10.4754 31.2144V34.8622C10.4754 37.4947 10.452 38.5023 10.3896 38.4789C10.2804 38.4398 4.69559 26.8557 4.75799 26.7932C4.78139 26.7697 4.85159 26.7697 4.90619 26.7854C4.96079 26.8166 6.23999 27.8243 7.73759 29.0194ZM14.5392 27.6134L16.8792 28.1523L15.7482 30.5114C15.0306 32.0033 14.586 32.8626 14.5158 32.8391C14.4612 32.8235 13.7982 32.3079 13.0494 31.7065L11.6844 30.6129V28.8007V26.9806L11.9496 27.0353C12.0822 27.0588 13.26 27.3243 14.5392 27.6134ZM29.1096 28.8397V29.7146L28.2906 29.5193C27.8382 29.41 27.4638 29.3084 27.4482 29.2928C27.4248 29.2772 29.0316 27.9727 29.094 27.9571C29.1018 27.9649 29.1096 28.3632 29.1096 28.8397ZM19.461 28.7304C20.1552 28.8944 20.787 29.035 20.8728 29.0663C20.9664 29.0897 21.2394 29.5584 21.6528 30.4254C22.0038 31.1597 22.2846 31.769 22.2846 31.7846C22.2846 31.8236 17.9946 35.2762 17.823 35.3856C17.7684 35.4168 17.2614 35.0653 16.6452 34.5654L15.5532 33.6984L16.8168 31.0738C17.511 29.6287 18.1038 28.4414 18.1428 28.4414C18.1662 28.4492 18.759 28.582 19.461 28.7304ZM23.985 30.4723L23.2908 31.0269L23.01 30.4801C22.8618 30.1833 22.6902 29.824 22.6356 29.6834L22.5342 29.4334L23.6106 29.6755L24.6792 29.9255L23.985 30.4723ZM40.0608 31.0113C41.0514 31.8002 41.8392 32.4798 41.8002 32.5267C41.769 32.5735 40.9344 32.4251 39.585 32.1049C38.3994 31.8315 37.3776 31.5893 37.323 31.5737C37.2372 31.5424 38.1108 29.574 38.2122 29.574C38.2434 29.574 39.078 30.2223 40.0608 31.0113ZM27.5184 30.5817C28.1892 30.7379 28.8288 30.8785 28.9302 30.9019L29.1096 30.941V33.8702V36.7994L28.0098 37.0572C27.4014 37.1978 26.7774 37.3462 26.637 37.3775L26.364 37.4478L25.779 36.2292C25.4592 35.5575 24.8898 34.3701 24.5076 33.5812L23.8212 32.1673L24.9834 31.2378C25.623 30.7223 26.1768 30.3083 26.2236 30.3083C26.2626 30.3004 26.8476 30.4254 27.5184 30.5817ZM32.955 31.8236C34.2966 32.1283 35.412 32.3939 35.4276 32.4095C35.4432 32.4251 35.1 33.1828 34.6632 34.0811L33.8676 35.7215L32.1516 36.1042C31.2078 36.3152 30.4122 36.4792 30.3732 36.4792C30.3342 36.4792 30.3108 35.3075 30.3108 33.8624C30.3108 31.7846 30.3342 31.2456 30.4122 31.2456C30.4746 31.2612 31.6134 31.5112 32.955 31.8236ZM12.792 33.0422C13.3536 33.4953 13.8606 33.9093 13.923 33.9561C14.0088 34.0421 13.8528 34.4404 12.9558 36.2839C12.3708 37.5025 11.856 38.4945 11.8092 38.4789C11.7234 38.4476 11.6298 32.2298 11.7234 32.2298C11.7468 32.2298 12.2304 32.597 12.792 33.0422ZM39.117 33.2375C40.3806 33.5265 41.4336 33.7609 41.4492 33.7609C41.4648 33.7609 41.4804 33.8155 41.4804 33.878C41.4804 33.9405 41.4648 33.9952 41.4492 33.9952C41.3946 33.9952 35.7552 35.2841 35.607 35.3309C35.529 35.3544 35.4588 35.3387 35.4588 35.2997C35.4588 35.1513 36.6756 32.7063 36.7536 32.7063C36.7848 32.7141 37.8534 32.9485 39.117 33.2375ZM24.0162 35.3465C24.6168 36.6042 25.077 37.6509 25.0458 37.6978C25.0068 37.729 24.2112 37.9321 23.283 38.143L21.5982 38.5257L20.1864 37.4087C19.4064 36.7994 18.7746 36.2683 18.7824 36.237C18.8136 36.1277 22.815 32.9719 22.8696 33.0188C22.893 33.05 23.4156 34.1045 24.0162 35.3465ZM16.6842 36.1745C16.7778 36.2448 13.1742 39.1428 13.0728 39.0803C13.026 39.0491 13.4004 38.1664 13.9932 36.9166L15.0072 34.8154L15.8106 35.4637C16.263 35.823 16.653 36.1433 16.6842 36.1745ZM41.7066 35.4168C41.262 35.8543 31.707 43.3922 31.6524 43.3375C31.6056 43.2906 34.5618 36.9713 34.7178 36.7994C34.8114 36.6979 41.7534 35.1513 41.7846 35.2294C41.808 35.2684 41.769 35.3465 41.7066 35.4168ZM18.9228 37.9477C19.539 38.4398 20.0382 38.8538 20.0226 38.8616C20.007 38.8773 18.6966 39.1819 17.1054 39.549C15.5142 39.9162 14.1492 40.2208 14.0712 40.252C13.65 40.3614 14.1258 39.9083 15.8184 38.5492C16.8402 37.7368 17.6982 37.0728 17.7294 37.065C17.7606 37.0572 18.2988 37.4556 18.9228 37.9477ZM32.6118 38.3539C30.7944 42.1502 30.4668 42.7829 30.3966 42.7126C30.342 42.6579 30.3264 41.7362 30.3342 40.1896L30.3576 37.7524L31.6446 37.4478C32.3544 37.2837 32.994 37.151 33.0642 37.1431C33.1656 37.1353 33.0642 37.4087 32.6118 38.3539ZM29.0238 42.7126C28.9614 42.7751 28.9224 42.7751 28.9068 42.7126C28.8834 42.6657 28.4388 41.7284 27.9084 40.6348C27.378 39.5334 26.9412 38.6195 26.9412 38.5804C26.9412 38.5414 27.4248 38.4086 28.0098 38.2836L29.0706 38.0493L29.094 40.3302C29.1096 41.9783 29.0862 42.6579 29.0238 42.7126ZM26.7384 41.0019C27.9708 43.564 27.8616 43.3297 27.7212 43.3297C27.5808 43.3297 22.815 39.549 22.8774 39.4944C22.9086 39.4631 25.4436 38.8538 25.6152 38.8382C25.662 38.8304 26.169 39.8068 26.7384 41.0019ZM24.1254 42.1111C25.6698 43.3453 26.9022 44.3842 26.871 44.4311C26.8398 44.4858 24.609 44.0093 20.7168 43.1188C17.3628 42.3533 14.5314 41.7049 14.4378 41.6815C13.9074 41.5565 14.3598 41.4081 17.6124 40.6582C19.4532 40.2286 21.0444 39.8849 21.138 39.8771C21.255 39.8693 22.23 40.6036 24.1254 42.1111Z" fill="white"/>
<path d="M122.304 11.6782L122.102 11.8735V21.247V30.6128L122.289 30.8315C122.546 31.1283 123.108 31.1283 123.373 30.8237L123.552 30.6128V21.247V11.8735L123.35 11.6782C123.077 11.397 122.577 11.397 122.304 11.6782Z" fill="white"/>
<path d="M72.6099 11.8735C71.7441 12.1625 70.9875 12.9358 70.7301 13.8029C70.5351 14.4668 70.6209 15.412 70.9095 16.0057C71.1981 16.5915 71.8533 17.2086 72.3993 17.4039L72.7893 17.5523L72.7971 23.9419C72.7971 28.6678 72.8205 30.4097 72.8907 30.6206C72.9999 30.9565 73.3899 31.1283 73.7799 31.0112C74.3025 30.8549 74.2713 31.3471 74.2947 24.106C74.3103 17.9116 74.3181 17.5132 74.4585 17.5132C74.7081 17.5132 75.4023 17.0446 75.7845 16.6306C76.3305 16.0213 76.5099 15.4901 76.4709 14.5371C76.4319 13.6466 76.2213 13.1467 75.6519 12.5765C74.9031 11.8188 73.6473 11.5298 72.6099 11.8735Z" fill="white"/>
<path d="M61.223 17.5133C59.2418 17.7632 57.791 18.6147 57.1592 19.9113L56.855 20.5206V21.5673C56.855 22.5047 56.8784 22.6609 57.0422 22.989C57.5804 24.0748 58.7582 24.6216 60.9968 24.8247C61.5038 24.8715 62.2526 24.9106 62.6426 24.9106C64.1948 24.9106 65.7002 25.2308 66.3554 25.7073C67.112 26.2541 67.1588 27.6992 66.449 28.5975C65.7392 29.4958 63.8438 29.9957 61.7768 29.8083C60.1778 29.6677 58.9454 29.2146 58.064 28.4257C57.6428 28.0585 57.5492 28.0039 57.2372 28.0039C56.7926 28.0039 56.582 28.2304 56.582 28.7147C56.582 29.0115 56.6288 29.0896 57.05 29.4958C57.5492 29.9801 58.4618 30.5035 59.312 30.7769C60.2324 31.0815 61.2542 31.2143 62.7674 31.2065C64.9358 31.1987 65.8796 30.9722 66.8858 30.2145C68.126 29.2849 68.633 28.0195 68.3912 26.4807C68.2196 25.3793 67.6658 24.645 66.6674 24.1763C65.8484 23.8014 64.8812 23.6373 62.5724 23.5124C60.3728 23.3952 59.8268 23.2936 59.078 22.9265C58.4618 22.6219 58.2512 22.2079 58.298 21.4189C58.3448 20.5284 58.6646 20.0441 59.5148 19.5677C60.5054 19.0209 60.9656 18.9271 62.4866 18.9271C63.6878 18.9271 63.9218 18.9506 64.4522 19.1146C65.2244 19.3646 65.7704 19.638 66.215 20.0051C66.6908 20.3957 66.8702 20.4972 67.1822 20.4972C67.7516 20.4972 68.0324 19.7395 67.6502 19.2474C67.19 18.6615 65.6612 17.896 64.4132 17.6383C63.6488 17.482 61.9796 17.4195 61.223 17.5133Z" fill="white"/>
<path d="M84.156 17.4817C83.6022 17.5755 82.9392 17.7785 82.5102 17.9973C82.0032 18.255 81.2388 18.9112 80.8878 19.3955L80.6616 19.7079V18.9893C80.6616 18.091 80.5134 17.7395 80.1 17.6458C79.9206 17.5989 79.7412 17.6067 79.593 17.6614C79.125 17.841 79.1328 17.7395 79.1328 24.3479C79.1328 31.0109 79.125 30.8937 79.6086 30.9875C79.905 31.05 79.8894 31.05 80.1858 30.9875C80.6538 30.9015 80.6616 30.7922 80.6616 26.7147C80.6616 22.7543 80.6928 22.3716 81.114 21.3327C81.348 20.7547 81.8706 20.0282 82.3074 19.6689C82.4868 19.5283 82.8612 19.3096 83.142 19.169C83.5788 18.9659 83.7738 18.919 84.4524 18.8878C86.1606 18.8096 87.2526 19.3799 87.8844 20.6687C88.3992 21.7233 88.3992 21.7233 88.446 26.41C88.5006 31.0968 88.4694 30.8625 88.9764 31.0031C89.2728 31.089 89.7174 30.9797 89.811 30.7922C89.85 30.7219 89.8968 28.9175 89.9202 26.7928C89.9592 22.645 89.9826 22.4341 90.4194 21.3561C90.6612 20.7547 91.176 20.036 91.6206 19.6689C91.8 19.5283 92.1744 19.3096 92.4552 19.169C92.9154 18.9502 93.087 18.919 93.8358 18.8878C94.5534 18.8565 94.7952 18.8799 95.2476 19.0127C96.2304 19.3096 96.987 20.0438 97.3536 21.0046C97.7202 21.981 97.767 22.5825 97.767 26.7147V30.5969L97.9542 30.8078C98.2584 31.1671 99.0774 31.0734 99.171 30.6594C99.2022 30.5578 99.21 28.4878 99.1944 26.0585C99.1632 21.7701 99.1632 21.6217 98.9838 20.989C98.352 18.7315 96.9948 17.6067 94.6938 17.4427C92.5098 17.2942 90.6222 18.1613 89.694 19.7314C89.5692 19.9579 89.4366 20.1454 89.4132 20.1454C89.3898 20.1454 89.265 19.9423 89.1402 19.6923C88.3992 18.2863 87.0498 17.5052 85.2402 17.4505C84.78 17.4583 84.2964 17.4661 84.156 17.4817Z" fill="white"/>
<path d="M109.94 17.5212C108.458 17.7243 106.797 18.6851 105.978 19.8255L105.728 20.1614L105.697 19.0757C105.673 18.0758 105.658 17.9821 105.486 17.8102C105.229 17.5524 104.667 17.5524 104.41 17.8102L104.223 17.9977V26.887V35.784L104.449 35.9793C104.745 36.2371 105.151 36.2371 105.447 35.9793L105.673 35.784L105.697 32.1518L105.72 28.5273L106.024 28.9101C106.438 29.4256 106.898 29.8318 107.561 30.2692C108.692 31.0035 109.495 31.1988 111.297 31.1988C112.686 31.2066 113.349 31.0738 114.324 30.5739C116.086 29.6912 117.061 28.5195 117.654 26.5589C117.857 25.8871 117.873 25.7387 117.873 24.3483C117.873 22.6845 117.795 22.1924 117.311 21.1456C116.508 19.3959 115.026 18.1461 113.146 17.6618C112.397 17.4743 110.782 17.3962 109.94 17.5212ZM112.576 19.0366C114.292 19.4818 115.618 20.7238 116.149 22.4111C116.695 24.1374 116.43 26.2074 115.501 27.6056C114.885 28.5351 114.035 29.1757 112.912 29.5428C112.335 29.7381 112.132 29.7615 111.133 29.7615C110.166 29.7693 109.924 29.7459 109.41 29.5819C107.74 29.0585 106.547 27.9102 105.993 26.2621C105.673 25.2935 105.619 23.864 105.868 22.8954C106.36 20.9269 107.701 19.5365 109.589 19.0366C110.408 18.8335 111.75 18.8257 112.576 19.0366Z" fill="white"/>
<path d="M133.038 17.513C130.979 17.8801 129.154 19.208 128.327 20.9343C127.719 22.1919 127.602 22.7231 127.602 24.3557C127.609 25.9882 127.703 26.5194 128.202 27.5349C129.279 29.7299 131.127 30.9484 133.795 31.1906C134.692 31.2765 135.846 31.1984 136.673 30.9797C138.108 30.6125 140.082 29.2456 140.269 28.4722C140.339 28.2145 140.191 27.7458 140.011 27.652C139.933 27.613 139.731 27.5739 139.559 27.5739C139.302 27.5739 139.185 27.6442 138.615 28.1988C137.874 28.9175 137.352 29.2377 136.439 29.5502C135.854 29.7611 135.69 29.7767 134.629 29.7845C133.296 29.7845 132.789 29.683 131.821 29.2065C130.948 28.7769 130.105 27.9254 129.669 27.0115C129.388 26.4179 129.091 25.4102 129.091 25.0509C129.091 24.9415 129.754 24.9259 134.856 24.9025C139.465 24.8868 140.651 24.8556 140.799 24.7775C141.119 24.59 141.244 24.1682 141.174 23.4418C140.924 20.5438 139.122 18.3878 136.353 17.6848C135.62 17.4817 133.732 17.388 133.038 17.513ZM135.948 19.0362C137.632 19.4658 138.935 20.6844 139.473 22.3326C139.582 22.6606 139.692 23.059 139.723 23.1918L139.77 23.4574H134.434H129.099L129.216 22.9106C129.692 20.7937 131.158 19.3877 133.374 18.919C133.881 18.8331 135.37 18.8878 135.948 19.0362Z" fill="white"/>
<path d="M143.865 17.7007C143.755 17.7554 143.615 17.9038 143.56 18.0288C143.319 18.5131 143.389 18.6147 146.072 21.5361L148.591 24.2935L147.281 25.7073C143.163 30.1598 143.381 29.902 143.381 30.2848C143.381 30.48 143.42 30.7066 143.459 30.7847C143.576 31.0034 144.06 31.1206 144.34 31.0034C144.457 30.9487 145.69 29.6442 147.07 28.1054C148.451 26.5666 149.605 25.3246 149.637 25.3324C149.66 25.348 150.791 26.59 152.14 28.0898C153.482 29.5974 154.644 30.8706 154.714 30.9331C154.785 30.9878 154.995 31.0346 155.182 31.0346C155.65 31.0268 155.9 30.7769 155.9 30.3238C155.9 29.902 156.126 30.1754 153.022 26.8009L150.658 24.2466L150.978 23.9107C151.15 23.7311 152.296 22.4891 153.513 21.1455C155.682 18.7553 155.728 18.7006 155.728 18.3725C155.721 17.8414 155.377 17.5367 154.886 17.6226C154.66 17.6695 154.246 18.0991 152.156 20.4425C150.807 21.9735 149.668 23.2155 149.637 23.2155C149.605 23.2155 148.498 22.0048 147.18 20.5206C145.861 19.0365 144.715 17.7711 144.621 17.7086C144.434 17.568 144.13 17.5601 143.865 17.7007Z" fill="white"/>
</g>
<defs>
<clipPath id="clip0_2386_92525">
<rect width="156" height="51" fill="white"/>
</clipPath>
</defs>
</svg>
