<svg width="204" height="61" viewBox="0 0 204 61" fill="none" xmlns="http://www.w3.org/2000/svg">
<path d="M46.6144 46.4483C47.0748 45.9866 47.0748 45.238 46.6144 44.7763C46.1539 44.3146 45.4074 44.3146 44.947 44.7763C44.4865 45.238 44.4865 45.9866 44.947 46.4483C45.4074 46.91 46.1539 46.91 46.6144 46.4483Z" fill="white"/>
<path d="M44.2172 44.0444C44.6117 43.6488 44.6117 43.0074 44.2172 42.6118C43.8227 42.2162 43.1831 42.2162 42.7885 42.6118C42.394 43.0074 42.394 43.6488 42.7885 44.0444C43.183 44.44 43.8227 44.44 44.2172 44.0444Z" fill="white"/>
<path d="M42.0583 41.8793C42.3868 41.5498 42.3868 41.0156 42.0583 40.6861C41.7297 40.3566 41.197 40.3566 40.8684 40.6861C40.5398 41.0156 40.5398 41.5498 40.8684 41.8793C41.197 42.2088 41.7297 42.2088 42.0583 41.8793Z" fill="white"/>
<path d="M40.1415 39.953C40.4042 39.6896 40.4042 39.2626 40.1415 38.9992C39.8789 38.7358 39.4531 38.7358 39.1904 38.9992C38.9278 39.2626 38.9278 39.6896 39.1904 39.953C39.4531 40.2163 39.8789 40.2163 40.1415 39.953Z" fill="white"/>
<path d="M38.4592 38.2649C38.6559 38.0676 38.6559 37.7478 38.4592 37.5505C38.2625 37.3533 37.9435 37.3533 37.7468 37.5505C37.5501 37.7478 37.5501 38.0676 37.7468 38.2649C37.9435 38.4621 38.2625 38.4622 38.4592 38.2649Z" fill="white"/>
<path d="M37.0132 36.818C37.145 36.6858 37.145 36.4714 37.0132 36.3392C36.8813 36.207 36.6675 36.207 36.5356 36.3392C36.4038 36.4714 36.4038 36.6858 36.5356 36.818C36.6675 36.9503 36.8813 36.9503 37.0132 36.818Z" fill="white"/>
<path d="M35.8074 35.6075C35.8733 35.5414 35.8733 35.4342 35.8074 35.3681C35.7414 35.302 35.6345 35.302 35.5686 35.3681C35.5027 35.4342 35.5027 35.5414 35.5686 35.6075C35.6345 35.6736 35.7414 35.6736 35.8074 35.6075Z" fill="white"/>
<path d="M34.6012 34.3969C34.9298 34.0674 34.9298 33.5332 34.6012 33.2037C34.2727 32.8742 33.7399 32.8742 33.4113 33.2037C33.0828 33.5332 33.0828 34.0674 33.4113 34.3969C33.7399 34.7264 34.2727 34.7264 34.6012 34.3969Z" fill="white"/>
<path d="M16.3331 16.0772C16.7936 15.6155 16.7936 14.8669 16.3331 14.4052C15.8727 13.9435 15.1262 13.9435 14.6657 14.4052C14.2053 14.8669 14.2053 15.6155 14.6657 16.0772C15.1262 16.539 15.8727 16.539 16.3331 16.0772Z" fill="white"/>
<path d="M18.4906 18.2417C18.8851 17.8461 18.8851 17.2047 18.4906 16.8091C18.0961 16.4135 17.4565 16.4135 17.062 16.8091C16.6675 17.2047 16.6675 17.8461 17.062 18.2417C17.4565 18.6373 18.0961 18.6373 18.4906 18.2417Z" fill="white"/>
<path d="M20.4059 20.1674C20.7345 19.8379 20.7345 19.3037 20.4059 18.9742C20.0773 18.6447 19.5446 18.6447 19.216 18.9742C18.8875 19.3037 18.8875 19.8379 19.216 20.1674C19.5446 20.4969 20.0773 20.4969 20.4059 20.1674Z" fill="white"/>
<path d="M22.0908 21.8548C22.3534 21.5914 22.3534 21.1644 22.0908 20.901C21.8281 20.6377 21.4023 20.6377 21.1396 20.901C20.877 21.1644 20.877 21.5914 21.1396 21.8548C21.4023 22.1182 21.8281 22.1182 22.0908 21.8548Z" fill="white"/>
<path d="M23.5334 23.303C23.7301 23.1057 23.7301 22.7859 23.5334 22.5886C23.3367 22.3914 23.0177 22.3914 22.821 22.5886C22.6243 22.7859 22.6243 23.1057 22.821 23.303C23.0177 23.5002 23.3367 23.5002 23.5334 23.303Z" fill="white"/>
<path d="M24.7436 24.5148C24.8755 24.3826 24.8755 24.1682 24.7436 24.036C24.6118 23.9037 24.398 23.9037 24.2661 24.036C24.1342 24.1682 24.1342 24.3826 24.2661 24.5148C24.398 24.647 24.6118 24.647 24.7436 24.5148Z" fill="white"/>
<path d="M25.7136 25.4854C25.7795 25.4193 25.7795 25.3121 25.7136 25.246C25.6477 25.1799 25.5408 25.1799 25.4748 25.246C25.4089 25.3121 25.4089 25.4193 25.4748 25.4854C25.5408 25.5515 25.6477 25.5515 25.7136 25.4854Z" fill="white"/>
<path d="M27.8708 27.6498C28.1993 27.3203 28.1993 26.7861 27.8708 26.4566C27.5422 26.1271 27.0095 26.1271 26.6809 26.4566C26.3523 26.7861 26.3523 27.3203 26.6809 27.6498C27.0095 27.9793 27.5422 27.9793 27.8708 27.6498Z" fill="white"/>
<path d="M16.3292 46.4459C16.7897 45.9842 16.7897 45.2356 16.3292 44.7738C15.8688 44.3121 15.1223 44.3121 14.6618 44.7738C14.2014 45.2356 14.2014 45.9842 14.6618 46.4459C15.1223 46.9076 15.8688 46.9076 16.3292 46.4459Z" fill="white"/>
<path d="M18.4906 44.0425C18.8851 43.6469 18.8851 43.0055 18.4906 42.6099C18.0961 42.2143 17.4565 42.2143 17.062 42.6099C16.6675 43.0055 16.6675 43.6469 17.062 44.0425C17.4565 44.4381 18.0961 44.4381 18.4906 44.0425Z" fill="white"/>
<path d="M20.4059 41.8783C20.7345 41.5488 20.7345 41.0146 20.4059 40.6851C20.0773 40.3557 19.5446 40.3557 19.216 40.6851C18.8875 41.0146 18.8875 41.5488 19.216 41.8783C19.5446 42.2078 20.0773 42.2078 20.4059 41.8783Z" fill="white"/>
<path d="M22.0947 39.9549C22.3573 39.6915 22.3573 39.2645 22.0947 39.0011C21.832 38.7378 21.4062 38.7378 21.1435 39.0011C20.8809 39.2645 20.8809 39.6915 21.1435 39.9549C21.4062 40.2183 21.832 40.2183 22.0947 39.9549Z" fill="white"/>
<path d="M23.5373 38.2673C23.734 38.0701 23.734 37.7502 23.5373 37.553C23.3406 37.3557 23.0216 37.3557 22.8249 37.553C22.6282 37.7502 22.6282 38.0701 22.8249 38.2673C23.0216 38.4646 23.3406 38.4646 23.5373 38.2673Z" fill="white"/>
<path d="M24.7436 36.819C24.8755 36.6868 24.8755 36.4724 24.7436 36.3402C24.6118 36.2079 24.398 36.2079 24.2661 36.3402C24.1342 36.4724 24.1342 36.6868 24.2661 36.819C24.398 36.9512 24.6118 36.9512 24.7436 36.819Z" fill="white"/>
<path d="M25.7136 35.609C25.7795 35.5429 25.7795 35.4357 25.7136 35.3695C25.6477 35.3034 25.5408 35.3034 25.4748 35.3695C25.4089 35.4357 25.4089 35.5429 25.4748 35.609C25.5408 35.6751 25.6477 35.6751 25.7136 35.609Z" fill="white"/>
<path d="M27.8747 34.3984C28.2032 34.0689 28.2032 33.5347 27.8747 33.2052C27.5461 32.8757 27.0134 32.8757 26.6848 33.2052C26.3562 33.5347 26.3562 34.0689 26.6848 34.3984C27.0134 34.7278 27.5461 34.7278 27.8747 34.3984Z" fill="white"/>
<path d="M46.6144 16.0797C47.0748 15.618 47.0748 14.8694 46.6144 14.4076C46.1539 13.9459 45.4074 13.9459 44.947 14.4076C44.4865 14.8694 44.4865 15.618 44.947 16.0797C45.4074 16.5414 46.1539 16.5414 46.6144 16.0797Z" fill="white"/>
<path d="M44.2211 18.2441C44.6156 17.8485 44.6156 17.2071 44.2211 16.8115C43.8266 16.4159 43.187 16.4159 42.7924 16.8115C42.3979 17.2071 42.3979 17.8485 42.7924 18.2441C43.187 18.6397 43.8266 18.6397 44.2211 18.2441Z" fill="white"/>
<path d="M42.0622 20.1684C42.3908 19.8389 42.3907 19.3047 42.0622 18.9752C41.7336 18.6457 41.2009 18.6457 40.8723 18.9752C40.5437 19.3047 40.5437 19.8389 40.8723 20.1684C41.2009 20.4979 41.7336 20.4979 42.0622 20.1684Z" fill="white"/>
<path d="M40.1415 21.8524C40.4042 21.589 40.4042 21.162 40.1415 20.8986C39.8789 20.6352 39.4531 20.6352 39.1904 20.8986C38.9278 21.162 38.9278 21.589 39.1904 21.8524C39.4531 22.1157 39.8789 22.1157 40.1415 21.8524Z" fill="white"/>
<path d="M38.4592 23.301C38.6559 23.1038 38.6559 22.7839 38.4592 22.5867C38.2625 22.3894 37.9435 22.3894 37.7468 22.5867C37.5501 22.7839 37.5501 23.1038 37.7468 23.301C37.9435 23.4983 38.2625 23.4983 38.4592 23.301Z" fill="white"/>
<path d="M37.0132 24.5138C37.145 24.3816 37.145 24.1672 37.0132 24.035C36.8813 23.9028 36.6675 23.9028 36.5356 24.035C36.4038 24.1672 36.4038 24.3816 36.5356 24.5138C36.6675 24.6461 36.8813 24.6461 37.0132 24.5138Z" fill="white"/>
<path d="M35.8074 25.484C35.8733 25.4179 35.8733 25.3107 35.8074 25.2445C35.7414 25.1784 35.6345 25.1784 35.5686 25.2445C35.5027 25.3107 35.5027 25.4179 35.5686 25.484C35.6345 25.5501 35.7414 25.5501 35.8074 25.484Z" fill="white"/>
<path d="M34.5973 27.6479C34.9259 27.3184 34.9259 26.7842 34.5973 26.4547C34.2688 26.1252 33.736 26.1252 33.4074 26.4547C33.0789 26.7842 33.0789 27.3184 33.4074 27.6479C33.736 27.9774 34.2688 27.9774 34.5973 27.6479Z" fill="white"/>
<path d="M27.275 31.2699C27.7396 31.2699 28.1163 30.8922 28.1163 30.4262C28.1163 29.9603 27.7396 29.5825 27.275 29.5825C26.8103 29.5825 26.4336 29.9603 26.4336 30.4262C26.4336 30.8922 26.8103 31.2699 27.275 31.2699Z" fill="white"/>
<path d="M34.0054 31.2699C34.4701 31.2699 34.8468 30.8922 34.8468 30.4262C34.8468 29.9603 34.4701 29.5825 34.0054 29.5825C33.5408 29.5825 33.1641 29.9603 33.1641 30.4262C33.1641 30.8922 33.5408 31.2699 34.0054 31.2699Z" fill="white"/>
<path d="M15.4993 31.6088C16.1505 31.6088 16.6784 31.0794 16.6784 30.4264C16.6784 29.7735 16.1505 29.2441 15.4993 29.2441C14.8482 29.2441 14.3203 29.7735 14.3203 30.4264C14.3203 31.0794 14.8482 31.6088 15.4993 31.6088Z" fill="white"/>
<path d="M19.4906 31.1436C19.8851 30.7479 19.8851 30.1065 19.4906 29.7109C19.0961 29.3153 18.4565 29.3153 18.062 29.7109C17.6675 30.1065 17.6675 30.7479 18.062 31.1436C18.4565 31.5392 19.0961 31.5392 19.4906 31.1436Z" fill="white"/>
<path d="M22.3161 31.0229C22.6447 30.6934 22.6447 30.1592 22.3161 29.8297C21.9875 29.5002 21.4548 29.5002 21.1262 29.8297C20.7976 30.1592 20.7976 30.6934 21.1262 31.0229C21.4548 31.3524 21.9875 31.3524 22.3161 31.0229Z" fill="white"/>
<path d="M24.8095 30.9027C25.0721 30.6393 25.0721 30.2123 24.8095 29.9489C24.5469 29.6855 24.121 29.6855 23.8584 29.9489C23.5957 30.2123 23.5957 30.6393 23.8584 30.9027C24.121 31.166 24.5469 31.166 24.8095 30.9027Z" fill="white"/>
<path d="M45.7806 31.6088C46.4318 31.6088 46.9596 31.0794 46.9596 30.4264C46.9596 29.7735 46.4318 29.2441 45.7806 29.2441C45.1294 29.2441 44.6016 29.7735 44.6016 30.4264C44.6016 31.0794 45.1294 31.6088 45.7806 31.6088Z" fill="white"/>
<path d="M43.2211 31.1426C43.6156 30.747 43.6156 30.1056 43.2211 29.71C42.8266 29.3144 42.187 29.3144 41.7924 29.71C41.3979 30.1056 41.3979 30.747 41.7924 31.1426C42.187 31.5382 42.8266 31.5382 43.2211 31.1426Z" fill="white"/>
<path d="M40.1559 31.0238C40.4845 30.6944 40.4845 30.1601 40.1559 29.8306C39.8273 29.5012 39.2946 29.5012 38.966 29.8307C38.6375 30.1601 38.6375 30.6944 38.966 31.0238C39.2946 31.3533 39.8273 31.3533 40.1559 31.0238Z" fill="white"/>
<path d="M37.4267 30.9022C37.6893 30.6388 37.6893 30.2118 37.4267 29.9484C37.164 29.685 36.7382 29.685 36.4756 29.9484C36.2129 30.2118 36.2129 30.6388 36.4756 30.9022C36.7382 31.1656 37.164 31.1656 37.4267 30.9022Z" fill="white"/>
<path d="M30.6422 34.6449C31.1068 34.6449 31.4835 34.2672 31.4835 33.8012C31.4835 33.3353 31.1068 32.9575 30.6422 32.9575C30.1775 32.9575 29.8008 33.3353 29.8008 33.8012C29.8008 34.2672 30.1775 34.6449 30.6422 34.6449Z" fill="white"/>
<path d="M30.6422 27.8949C31.1068 27.8949 31.4835 27.5172 31.4835 27.0512C31.4835 26.5853 31.1068 26.2075 30.6422 26.2075C30.1775 26.2075 29.8008 26.5853 29.8008 27.0512C29.8008 27.5172 30.1775 27.8949 30.6422 27.8949Z" fill="white"/>
<path d="M30.64 46.7928C31.2911 46.7928 31.819 46.2635 31.819 45.6105C31.819 44.9576 31.2911 44.4282 30.64 44.4282C29.9888 44.4282 29.4609 44.9576 29.4609 45.6105C29.4609 46.2635 29.9888 46.7928 30.64 46.7928Z" fill="white"/>
<path d="M31.3539 43.0391C31.7484 42.6435 31.7484 42.0021 31.3539 41.6064C30.9594 41.2108 30.3198 41.2108 29.9253 41.6064C29.5308 42.0021 29.5308 42.6435 29.9253 43.0391C30.3198 43.4347 30.9594 43.4347 31.3539 43.0391Z" fill="white"/>
<path d="M31.234 39.9652C31.5626 39.6358 31.5626 39.1015 31.234 38.7721C30.9055 38.4426 30.3727 38.4426 30.0442 38.7721C29.7156 39.1015 29.7156 39.6358 30.0442 39.9653C30.3727 40.2947 30.9055 40.2947 31.234 39.9652Z" fill="white"/>
<path d="M31.1181 37.2308C31.3807 36.9674 31.3807 36.5404 31.1181 36.277C30.8554 36.0136 30.4296 36.0136 30.167 36.277C29.9043 36.5404 29.9043 36.9674 30.167 37.2308C30.4296 37.4942 30.8554 37.4942 31.1181 37.2308Z" fill="white"/>
<path d="M30.64 16.4247C31.2911 16.4247 31.819 15.8953 31.819 15.2424C31.819 14.5894 31.2911 14.0601 30.64 14.0601C29.9888 14.0601 29.4609 14.5894 29.4609 15.2424C29.4609 15.8953 29.9888 16.4247 30.64 16.4247Z" fill="white"/>
<path d="M31.3539 19.2476C31.7484 18.852 31.7484 18.2105 31.3539 17.8149C30.9594 17.4193 30.3198 17.4193 29.9253 17.8149C29.5308 18.2105 29.5308 18.852 29.9253 19.2476C30.3198 19.6432 30.9594 19.6432 31.3539 19.2476Z" fill="white"/>
<path d="M31.234 22.0819C31.5626 21.7525 31.5626 21.2182 31.234 20.8888C30.9055 20.5593 30.3727 20.5593 30.0442 20.8888C29.7156 21.2182 29.7156 21.7525 30.0442 22.0819C30.3727 22.4114 30.9055 22.4114 31.234 22.0819Z" fill="white"/>
<path d="M31.1142 24.577C31.3768 24.3136 31.3768 23.8866 31.1142 23.6232C30.8515 23.3598 30.4257 23.3598 30.1631 23.6232C29.9004 23.8866 29.9004 24.3136 30.1631 24.577C30.4257 24.8404 30.8515 24.8404 31.1142 24.577Z" fill="white"/>
<path d="M23.5945 16.3013C24.1767 16.0089 24.4123 15.2986 24.1208 14.7147C23.8292 14.1308 23.1209 13.8945 22.5386 14.1869C21.9564 14.4793 21.7207 15.1896 22.0123 15.7735C22.3039 16.3573 23.0122 16.5936 23.5945 16.3013Z" fill="white"/>
<path d="M25.4352 18.3756C25.6113 17.8447 25.3249 17.2712 24.7955 17.0946C24.2661 16.918 23.6942 17.2052 23.5181 17.736C23.342 18.2669 23.6284 18.8404 24.1578 19.017C24.6872 19.1936 25.2591 18.9064 25.4352 18.3756Z" fill="white"/>
<path d="M26.5264 20.8361C26.673 20.3939 26.4345 19.9162 25.9936 19.7692C25.5527 19.6221 25.0763 19.8613 24.9296 20.3034C24.783 20.7456 25.0215 21.2232 25.4624 21.3703C25.9033 21.5174 26.3797 21.2782 26.5264 20.8361Z" fill="white"/>
<path d="M27.4691 22.9909C27.5863 22.6375 27.3957 22.2557 27.0432 22.1381C26.6908 22.0205 26.31 22.2117 26.1928 22.5651C26.0755 22.9186 26.2662 23.3004 26.6186 23.418C26.9711 23.5355 27.3518 23.3443 27.4691 22.9909Z" fill="white"/>
<path d="M28.2634 24.8464C28.3512 24.5817 28.2084 24.2957 27.9444 24.2077C27.6804 24.1196 27.3952 24.2628 27.3074 24.5275C27.2196 24.7922 27.3624 25.0782 27.6264 25.1663C27.8904 25.2543 28.1756 25.1111 28.2634 24.8464Z" fill="white"/>
<path d="M39.2731 15.7711C39.5647 15.1873 39.329 14.477 38.7468 14.1846C38.1646 13.8922 37.4562 14.1285 37.1646 14.7124C36.8731 15.2962 37.1087 16.0065 37.691 16.2989C38.2732 16.5913 38.9816 16.355 39.2731 15.7711Z" fill="white"/>
<path d="M37.1315 19.0177C37.6609 18.8411 37.9473 18.2676 37.7711 17.7367C37.595 17.2059 37.0231 16.9187 36.4937 17.0953C35.9643 17.2719 35.6779 17.8454 35.854 18.3763C36.0301 18.9071 36.6021 19.1943 37.1315 19.0177Z" fill="white"/>
<path d="M35.9589 21.2369C36.4003 21.0878 36.6376 20.608 36.4889 20.1654C36.3403 19.7227 35.8618 19.4847 35.4204 19.6338C34.979 19.7829 34.7416 20.2627 34.8903 20.7053C35.039 21.148 35.5174 21.386 35.9589 21.2369Z" fill="white"/>
<path d="M34.6682 23.4171C35.0207 23.2995 35.2113 22.9177 35.0941 22.5643C34.9768 22.2108 34.5961 22.0196 34.2436 22.1372C33.8912 22.2548 33.7005 22.6366 33.8178 22.99C33.935 23.3435 34.3158 23.5347 34.6682 23.4171Z" fill="white"/>
<path d="M33.6592 25.1683C33.9232 25.0802 34.066 24.7943 33.9782 24.5296C33.8904 24.2648 33.6052 24.1216 33.3412 24.2097C33.0773 24.2978 32.9345 24.5837 33.0223 24.8484C33.1101 25.1131 33.3953 25.2563 33.6592 25.1683Z" fill="white"/>
<path d="M24.1208 46.1378C24.4123 45.554 24.1767 44.8437 23.5945 44.5513C23.0122 44.2589 22.3039 44.4952 22.0123 45.0791C21.7207 45.6629 21.9564 46.3732 22.5386 46.6656C23.1209 46.958 23.8292 46.7217 24.1208 46.1378Z" fill="white"/>
<path d="M24.7955 43.756C25.3249 43.5794 25.6113 43.0059 25.4352 42.475C25.2591 41.9442 24.6872 41.657 24.1578 41.8336C23.6284 42.0102 23.342 42.5837 23.5181 43.1145C23.6942 43.6454 24.2661 43.9326 24.7955 43.756Z" fill="white"/>
<path d="M25.9936 41.0819C26.4345 40.9348 26.673 40.4572 26.5264 40.015C26.3797 39.5729 25.9033 39.3337 25.4624 39.4808C25.0215 39.6278 24.783 40.1055 24.9296 40.5476C25.0763 40.9898 25.5527 41.229 25.9936 41.0819Z" fill="white"/>
<path d="M27.0471 38.714C27.3996 38.5964 27.5902 38.2146 27.473 37.8612C27.3557 37.5077 26.975 37.3165 26.6225 37.4341C26.2701 37.5517 26.0794 37.9335 26.1967 38.2869C26.3139 38.6403 26.6947 38.8315 27.0471 38.714Z" fill="white"/>
<path d="M27.9444 36.6419C28.2084 36.5539 28.3512 36.2679 28.2634 36.0032C28.1756 35.7385 27.8904 35.5953 27.6264 35.6833C27.3624 35.7714 27.2196 36.0574 27.3074 36.3221C27.3952 36.5868 27.6804 36.73 27.9444 36.6419Z" fill="white"/>
<path d="M38.7468 46.664C39.329 46.3717 39.5647 45.6613 39.2731 45.0775C38.9816 44.4936 38.2732 44.2573 37.691 44.5497C37.1087 44.8421 36.8731 45.5524 37.1646 46.1363C37.4562 46.7201 38.1646 46.9564 38.7468 46.664Z" fill="white"/>
<path d="M37.7711 43.1133C37.9473 42.5825 37.6609 42.009 37.1315 41.8324C36.6021 41.6558 36.0301 41.943 35.854 42.4738C35.6779 43.0047 35.9643 43.5782 36.4937 43.7548C37.0231 43.9314 37.595 43.6442 37.7711 43.1133Z" fill="white"/>
<path d="M36.3545 40.5485C36.5012 40.1063 36.2626 39.6286 35.8217 39.4816C35.3808 39.3345 34.9044 39.5737 34.7578 40.0158C34.6111 40.458 34.8496 40.9356 35.2905 41.0827C35.7315 41.2298 36.2078 40.9906 36.3545 40.5485Z" fill="white"/>
<path d="M35.0941 38.2839C35.2113 37.9304 35.0207 37.5486 34.6682 37.431C34.3158 37.3135 33.935 37.5047 33.8178 37.8581C33.7005 38.2115 33.8912 38.5934 34.2436 38.7109C34.5961 38.8285 34.9768 38.6373 35.0941 38.2839Z" fill="white"/>
<path d="M33.9821 36.3244C34.0699 36.0597 33.9271 35.7738 33.6632 35.6857C33.3992 35.5977 33.114 35.7409 33.0262 36.0056C32.9384 36.2703 33.0812 36.5562 33.3452 36.6443C33.6091 36.7324 33.8943 36.5892 33.9821 36.3244Z" fill="white"/>
<path d="M16.0281 39.0776C16.6103 38.7852 16.8459 38.0749 16.5544 37.4911C16.2628 36.9072 15.5544 36.6709 14.9722 36.9633C14.39 37.2557 14.1543 37.966 14.4459 38.5498C14.7375 39.1337 15.4458 39.37 16.0281 39.0776Z" fill="white"/>
<path d="M19.2633 36.9322C19.4394 36.4013 19.153 35.8278 18.6236 35.6512C18.0942 35.4746 17.5223 35.7618 17.3462 36.2927C17.1701 36.8236 17.4565 37.3971 17.9859 37.5737C18.5153 37.7503 19.0872 37.4631 19.2633 36.9322Z" fill="white"/>
<path d="M21.6123 35.6193C21.759 35.1771 21.5204 34.6994 21.0795 34.5524C20.6386 34.4053 20.1623 34.6445 20.0156 35.0866C19.8689 35.5288 20.1074 36.0064 20.5484 36.1535C20.9893 36.3006 21.4656 36.0614 21.6123 35.6193Z" fill="white"/>
<path d="M23.6566 34.4582C23.7738 34.1048 23.5832 33.7229 23.2307 33.6054C22.8783 33.4878 22.4975 33.679 22.3803 34.0324C22.263 34.3859 22.4537 34.7677 22.8061 34.8852C23.1586 35.0028 23.5393 34.8116 23.6566 34.4582Z" fill="white"/>
<path d="M25.4001 33.449C25.4879 33.1843 25.3451 32.8983 25.0811 32.8102C24.8171 32.7222 24.532 32.8654 24.4442 33.1301C24.3563 33.3948 24.4991 33.6808 24.7631 33.7688C25.0271 33.8569 25.3123 33.7137 25.4001 33.449Z" fill="white"/>
<path d="M16.5544 23.36C16.8459 22.7762 16.6103 22.0658 16.0281 21.7735C15.4458 21.4811 14.7375 21.7174 14.4459 22.3012C14.1543 22.8851 14.39 23.5954 14.9722 23.8878C15.5544 24.1802 16.2628 23.9439 16.5544 23.36Z" fill="white"/>
<path d="M18.6236 25.2028C19.153 25.0262 19.4394 24.4527 19.2633 23.9218C19.0872 23.3909 18.5153 23.1037 17.9859 23.2803C17.4565 23.4569 17.1701 24.0305 17.3462 24.5613C17.5223 25.0922 18.0942 25.3794 18.6236 25.2028Z" fill="white"/>
<path d="M21.0795 26.2997C21.5204 26.1526 21.759 25.6749 21.6123 25.2328C21.4656 24.7906 20.9893 24.5514 20.5484 24.6985C20.1074 24.8456 19.8689 25.3233 20.0156 25.7654C20.1623 26.2076 20.6386 26.4468 21.0795 26.2997Z" fill="white"/>
<path d="M23.2307 27.2438C23.5832 27.1262 23.7738 26.7444 23.6566 26.3909C23.5393 26.0375 23.1586 25.8463 22.8061 25.9639C22.4537 26.0814 22.263 26.4633 22.3803 26.8167C22.4975 27.1701 22.8783 27.3613 23.2307 27.2438Z" fill="white"/>
<path d="M25.0811 28.0384C25.3451 27.9504 25.4879 27.6644 25.4001 27.3997C25.3123 27.135 25.0271 26.9918 24.7631 27.0798C24.4991 27.1679 24.3563 27.4538 24.4442 27.7186C24.532 27.9833 24.8171 28.1265 25.0811 28.0384Z" fill="white"/>
<path d="M46.8356 38.5485C47.1272 37.9646 46.8915 37.2543 46.3093 36.9619C45.7271 36.6696 45.0187 36.9059 44.7271 37.4897C44.4356 38.0736 44.6712 38.7839 45.2535 39.0763C45.8357 39.3686 46.5441 39.1323 46.8356 38.5485Z" fill="white"/>
<path d="M43.2994 37.571C43.8288 37.3944 44.1152 36.8208 43.9391 36.29C43.763 35.7591 43.1911 35.4719 42.6617 35.6485C42.1323 35.8251 41.8459 36.3986 42.022 36.9295C42.1981 37.4604 42.77 37.7475 43.2994 37.571Z" fill="white"/>
<path d="M40.7397 36.1527C41.1806 36.0056 41.4191 35.528 41.2725 35.0858C41.1258 34.6437 40.6494 34.4045 40.2085 34.5516C39.7676 34.6986 39.5291 35.1763 39.6757 35.6185C39.8224 36.0606 40.2988 36.2998 40.7397 36.1527Z" fill="white"/>
<path d="M38.4807 34.8844C38.8332 34.7668 39.0238 34.385 38.9066 34.0316C38.7893 33.6781 38.4086 33.4869 38.0561 33.6045C37.7037 33.7221 37.513 34.1039 37.6303 34.4573C37.7475 34.8107 38.1283 35.0019 38.4807 34.8844Z" fill="white"/>
<path d="M36.5264 33.7713C36.7904 33.6833 36.9332 33.3973 36.8454 33.1326C36.7576 32.8679 36.4724 32.7247 36.2084 32.8127C35.9445 32.9008 35.8017 33.1868 35.8895 33.4515C35.9773 33.7162 36.2625 33.8594 36.5264 33.7713Z" fill="white"/>
<path d="M46.3132 23.8877C46.8954 23.5953 47.1311 22.885 46.8395 22.3011C46.548 21.7173 45.8396 21.481 45.2574 21.7733C44.6751 22.0657 44.4395 22.776 44.731 23.3599C45.0226 23.9438 45.731 24.1801 46.3132 23.8877Z" fill="white"/>
<path d="M43.9391 24.5592C44.1152 24.0283 43.8288 23.4548 43.2994 23.2782C42.77 23.1016 42.1981 23.3888 42.022 23.9196C41.8459 24.4505 42.1323 25.024 42.6617 25.2006C43.1911 25.3772 43.763 25.09 43.9391 24.5592Z" fill="white"/>
<path d="M41.2725 25.7623C41.4191 25.3202 41.1806 24.8425 40.7397 24.6954C40.2988 24.5483 39.8224 24.7875 39.6757 25.2297C39.5291 25.6718 39.7676 26.1495 40.2085 26.2966C40.6494 26.4437 41.1258 26.2045 41.2725 25.7623Z" fill="white"/>
<path d="M38.9066 26.8166C39.0238 26.4632 38.8332 26.0813 38.4807 25.9638C38.1283 25.8462 37.7475 26.0374 37.6303 26.3908C37.513 26.7442 37.7037 27.1261 38.0561 27.2436C38.4086 27.3612 38.7893 27.17 38.9066 26.8166Z" fill="white"/>
<path d="M36.8454 27.7195C36.9332 27.4548 36.7904 27.1688 36.5264 27.0807C36.2625 26.9927 35.9773 27.1359 35.8895 27.4006C35.8017 27.6653 35.9445 27.9513 36.2084 28.0393C36.4724 28.1274 36.7576 27.9842 36.8454 27.7195Z" fill="white"/>
<path d="M64.8333 30.5845L59.9345 35.5802V44.4059H56.6133V16.9297H59.9345V31.0841L73.7176 16.9297H78.0767L67.1582 28.1283L78.2012 44.4059H74.2158L64.8333 30.5845Z" fill="white"/>
<path d="M97.8735 35.247H82.2222C82.4068 37.3563 83.1051 38.9938 84.3174 40.1594C85.5296 41.3251 87.0869 41.9079 88.9892 41.9079C90.5115 41.9079 91.7781 41.6442 92.7893 41.1169C93.7444 40.6501 94.4809 39.8289 94.8429 38.8272L97.6244 40.2843C96.8522 41.6966 95.7019 42.8646 94.3032 43.6564C92.9193 44.4335 91.148 44.8221 88.9892 44.8221C85.8525 44.8221 83.3967 43.8645 81.6217 41.9495C79.8467 40.0345 78.9545 37.384 78.9453 33.9981C78.9453 30.6121 79.7959 27.9616 81.4971 26.0466C83.1983 24.1316 85.6127 23.1741 88.7401 23.1741C90.5016 23.1282 92.241 23.5751 93.7635 24.4647C95.1458 25.2934 96.2568 26.5088 96.9602 27.9616C97.6963 29.5074 98.0657 31.2029 98.0396 32.9157C98.0391 33.6957 97.9837 34.4748 97.8735 35.247ZM84.3119 27.7119C83.1919 28.7943 82.5073 30.3207 82.2582 32.2912H94.8374C94.6159 30.3485 93.9794 28.8294 92.9276 27.7341C91.8759 26.6387 90.4801 26.0901 88.7401 26.0883C86.9135 26.0883 85.4392 26.6295 84.3174 27.7119H84.3119Z" fill="white"/>
<path d="M119.01 25.2144C120.532 26.5743 121.293 28.5309 121.293 31.0843V44.4061H117.972V32.2499C117.972 30.0851 117.511 28.5124 116.588 27.5318C115.665 26.5512 114.424 26.0701 112.863 26.0886C111.782 26.0831 110.715 26.3332 109.749 26.8185C108.734 27.3505 107.902 28.1776 107.363 29.1915C106.742 30.2887 106.431 31.669 106.431 33.3323V44.4061H103.109V23.5908H106.002L106.209 26.838C106.85 25.6345 107.852 24.6636 109.074 24.0626C110.362 23.4518 111.773 23.1479 113.198 23.1745C115.548 23.1745 117.486 23.8544 119.01 25.2144Z" fill="white"/>
<path d="M145.204 35.247H129.555C129.74 37.3563 130.438 38.9937 131.65 40.1594C132.863 41.3251 134.42 41.9079 136.322 41.9079C137.844 41.9079 139.11 41.6442 140.12 41.1169C141.076 40.6509 141.813 39.8296 142.176 38.8272L144.944 40.2843C144.171 41.6967 143.021 42.8647 141.622 43.6564C140.239 44.4335 138.467 44.822 136.308 44.822C133.172 44.822 130.716 43.8645 128.941 41.9495C127.166 40.0345 126.273 37.384 126.262 33.9981C126.262 30.6121 127.113 27.9616 128.816 26.0466C130.519 24.1316 132.937 23.1741 136.07 23.1741C137.832 23.1283 139.571 23.5752 141.094 24.4646C142.476 25.2935 143.587 26.5089 144.29 27.9616C145.027 29.5073 145.396 31.2029 145.37 32.9157C145.369 33.6957 145.314 34.4748 145.204 35.247ZM131.642 27.7118C130.52 28.7942 129.835 30.3207 129.586 32.2912H142.165C141.943 30.3484 141.307 28.8294 140.255 27.734C139.203 26.6387 137.808 26.0901 136.07 26.0882C134.246 26.0882 132.772 26.6294 131.65 27.7118H131.642Z" fill="white"/>
<path d="M162.51 42.949C161.127 44.1979 159.341 44.8224 157.155 44.8224C155.467 44.8224 154.09 44.3598 153.026 43.4347C151.961 42.5096 151.416 41.1126 151.39 39.2439V26.4633H147.238V23.5908H151.39V18.5951L154.711 17.6792V23.5908H162.391V26.4633H154.711V38.6749C154.711 39.6741 154.994 40.4299 155.561 40.9424C156.19 41.4791 157 41.755 157.825 41.714C158.488 41.7104 159.143 41.5706 159.75 41.3033C160.356 41.036 160.902 40.6468 161.353 40.1597L162.51 42.949Z" fill="white"/>
<path d="M165.815 18.9088C165.584 18.6692 165.404 18.3849 165.287 18.0733C165.169 17.7617 165.116 17.4293 165.131 17.0965C165.131 16.434 165.394 15.7987 165.861 15.3302C166.328 14.8618 166.962 14.5986 167.622 14.5986C168.283 14.5986 168.916 14.8618 169.384 15.3302C169.851 15.7987 170.113 16.434 170.113 17.0965C170.102 17.5906 169.948 18.0708 169.671 18.4793C169.393 18.8878 169.004 19.2071 168.549 19.3987C168.095 19.5903 167.595 19.6459 167.11 19.559C166.625 19.4721 166.175 19.2463 165.815 18.9088ZM169.28 44.4062H165.959V23.5909H169.28V44.4062Z" fill="white"/>
<path d="M189.772 24.6092C191.251 25.6318 192.411 27.0542 193.116 28.7112L189.961 30.2099C189.073 27.4623 187.232 26.0885 184.436 26.0885C182.361 26.0885 180.735 26.7897 179.56 28.1922C178.384 29.5947 177.797 31.5301 177.797 33.9983C177.797 36.4684 178.385 38.4038 179.562 39.8044C180.74 41.205 182.364 41.9063 184.436 41.9081C186.042 41.9081 187.333 41.5381 188.311 40.798C189.328 40.013 190.018 38.8777 190.248 37.6119L193.321 38.6942C192.699 40.504 191.54 42.0796 189.999 43.2098C188.505 44.2792 186.678 44.814 184.519 44.814C181.383 44.814 178.927 43.8564 177.152 41.9414C175.377 40.0264 174.484 37.3759 174.473 33.99C174.473 30.604 175.366 27.9535 177.152 26.0385C178.938 24.1235 181.394 23.1688 184.519 23.1743C186.595 23.1743 188.346 23.6526 189.772 24.6092Z" fill="white"/>
</svg>
