<svg width="164" height="36" viewBox="0 0 164 36" fill="none" xmlns="http://www.w3.org/2000/svg">
<g clip-path="url(#clip0_2386_92502)">
<path d="M14.6989 36.0001C12.8154 36.0146 10.9469 35.6628 9.19692 34.9641C7.4517 34.2466 5.87046 33.18 4.54961 31.8294C3.01915 30.2023 1.88286 28.2434 1.22884 26.1047C0.36454 23.3896 -0.0504884 20.5507 0.000240323 17.7009C0.000240323 12.0804 1.4336 7.72519 4.30033 4.63514C5.60102 3.15988 7.20275 1.98246 8.99691 1.18272C10.7911 0.38299 12.7357 -0.0203492 14.6989 5.74905e-05C18.0191 -0.116658 21.254 1.0686 23.7175 3.30445C26.1636 5.64693 27.6763 8.80236 27.9731 12.1817L22.9608 13.0211C22.0764 7.43047 19.3225 4.63514 14.6989 4.63514C13.379 4.61599 12.073 4.90735 10.8857 5.48584C9.69828 6.06433 8.66254 6.91386 7.86149 7.96632C6.08091 10.1871 5.19062 13.4349 5.19062 17.7098C5.19062 22.2824 6.08091 25.7029 7.86149 27.9713C8.65344 29.0495 9.69181 29.9213 10.8893 30.5134C12.0869 31.1055 13.4086 31.4006 14.7434 31.3739C19.5272 31.3739 22.2159 28.2839 22.8094 22.1038L28.071 22.9432C27.7446 26.9561 26.4003 30.1355 24.038 32.4813C22.8019 33.6744 21.336 34.6018 19.7302 35.2068C18.1244 35.8119 16.4123 36.0818 14.6989 36.0001Z" fill="white"/>
<path d="M49.1603 35.2585V32.4989H49.0624C48.4391 33.489 47.563 34.2938 46.5251 34.8298C44.955 35.6955 43.1782 36.1126 41.3881 36.0355C38.4205 36.0355 36.1829 35.321 34.6754 33.8921C33.9496 33.2057 33.3757 32.374 32.9907 31.4509C32.6058 30.5279 32.4184 29.534 32.4407 28.5336C32.3859 27.5855 32.5357 26.6368 32.8799 25.7521C33.224 24.8674 33.7545 24.0676 34.435 23.4074C35.7645 22.2166 38.0169 21.2134 41.1923 20.3977C43.1574 19.9634 45.0749 19.3352 46.9168 18.5222C47.3647 18.3262 47.7452 18.0024 48.0112 17.5911C48.2771 17.1799 48.4166 16.6993 48.4125 16.2091C48.436 15.7043 48.3364 15.2013 48.1223 14.7437C47.9082 14.2862 47.5861 13.8879 47.1839 13.5835C46.0519 12.8294 44.702 12.4744 43.3468 12.5743C40.1002 12.5743 38.0852 14.2176 37.3017 17.5041L33.1263 16.0216C33.5309 13.8458 34.6996 11.8877 36.4203 10.5024C38.3823 9.01596 40.8019 8.26695 43.2577 8.38578C45.8904 8.26445 48.4797 9.09117 50.5581 10.7167C52.4099 12.2766 53.3358 14.6998 53.3358 17.9864V35.2585H49.1603ZM42.2784 23.8182C40.7975 24.1083 39.3972 24.7178 38.1742 25.6043C37.8278 25.9233 37.5539 26.3133 37.3711 26.7478C37.1883 27.1824 37.1008 27.6514 37.1147 28.1228C37.1147 30.5044 38.6876 31.6951 41.8333 31.6951C43.6236 31.8424 45.4105 31.3731 46.899 30.3644C47.4494 29.9626 47.8976 29.4361 48.2069 28.8278C48.5163 28.2194 48.6783 27.5465 48.6796 26.8636V20.9603H48.5817C48.4496 21.2596 48.2481 21.523 47.9941 21.7284C47.4381 22.0961 46.8404 22.396 46.2135 22.6215C44.9267 23.0985 43.6127 23.4982 42.2784 23.8182Z" fill="white"/>
<path d="M60.7188 35.2587V9.11826H65.3928V11.6099H65.4907C66.2884 10.6056 67.3182 9.81166 68.491 9.29687C69.7837 8.69212 71.1956 8.38689 72.6219 8.4038C73.8798 8.34412 75.1364 8.54574 76.313 8.99602C77.4895 9.4463 78.5607 10.1355 79.4593 11.0205C80.3388 11.9802 81.018 13.1067 81.4568 14.3337C81.8956 15.5608 82.0852 16.8635 82.0144 18.1651V35.2587H77.1802V19.5316C77.1802 15.0602 75.3462 12.8245 71.6782 12.8245C70.0285 12.7451 68.4138 13.3192 67.1822 14.4231C66.6041 14.9962 66.1537 15.6857 65.8606 16.4462C65.5675 17.2067 65.4384 18.0208 65.4818 18.835V35.2587H60.7188Z" fill="white"/>
<path d="M104.617 35.2586V32.4989H104.519C103.895 33.489 103.019 34.2938 101.981 34.8299C100.411 35.6956 98.6345 36.1126 96.8444 36.0355C93.8768 36.0355 91.6392 35.3211 90.1317 33.8921C89.4059 33.2057 88.832 32.3741 88.447 31.451C88.0621 30.5279 87.8747 29.534 87.897 28.5337C87.8338 27.5704 87.982 26.6048 88.3312 25.7052C88.6803 24.8056 89.222 23.9938 89.918 23.327C91.2475 22.1363 93.4999 21.133 96.6753 20.3173C98.6404 19.883 100.558 19.2548 102.4 18.4419C102.848 18.2458 103.228 17.922 103.494 17.5108C103.76 17.0996 103.9 16.619 103.896 16.1288C103.898 15.6342 103.784 15.1461 103.561 14.7049C103.338 14.2638 103.013 13.8824 102.614 13.5925C101.481 12.8384 100.132 12.4834 98.7764 12.5833C95.5298 12.5833 93.5148 14.2266 92.7313 17.5131L88.5559 16.0306C88.9605 13.8548 90.1292 11.8966 91.8499 10.5113C93.8119 9.02493 96.2315 8.27592 98.6873 8.39475C101.328 8.26441 103.928 9.08827 106.014 10.7168C107.866 12.2767 108.792 14.6999 108.792 17.9864V35.2586H104.617ZM97.7347 23.8182C96.2538 24.1084 94.8535 24.7178 93.6305 25.6044C93.2827 25.9289 93.0093 26.3254 92.8295 26.7665C92.6496 27.2075 92.5675 27.6825 92.5889 28.1586C92.5889 30.5401 94.1617 31.7309 97.3074 31.7309C99.1048 31.8698 100.896 31.3877 102.382 30.3645C102.942 29.9555 103.396 29.4176 103.706 28.796C104.016 28.1743 104.173 27.4871 104.163 26.7922V20.9604H104.065C103.933 21.2597 103.731 21.523 103.477 21.7284C102.921 22.0962 102.323 22.396 101.697 22.6215C100.398 23.0999 99.0721 23.4996 97.7258 23.8182H97.7347Z" fill="white"/>
<path d="M131.155 35.2586V32.499H131.057C130.437 33.4879 129.564 34.2926 128.529 34.8299C126.959 35.6956 125.182 36.1127 123.392 36.0356C120.424 36.0356 118.187 35.3211 116.679 33.8922C115.953 33.2058 115.38 32.3741 114.995 31.4511C114.61 30.528 114.422 29.5341 114.445 28.5337C114.39 27.5857 114.54 26.6369 114.884 25.7522C115.228 24.8675 115.758 24.0677 116.439 23.4075C117.768 22.2167 120.021 21.2135 123.196 20.3978C125.161 19.9635 127.079 19.3353 128.921 18.5223C129.369 18.3263 129.749 18.0025 130.015 17.5912C130.281 17.18 130.421 16.6994 130.416 16.2093C130.419 15.7147 130.305 15.2265 130.082 14.7854C129.859 14.3442 129.534 13.9628 129.134 13.6729C128.002 12.9189 126.652 12.5638 125.297 12.6637C122.051 12.6637 120.036 14.307 119.252 17.5935L115.077 16.111C115.481 13.9353 116.65 11.9771 118.371 10.5918C120.333 9.10537 122.752 8.35637 125.208 8.47519C127.848 8.31549 130.457 9.11085 132.562 10.7168C134.402 12.2827 135.322 14.7089 135.322 17.9954V35.2586H131.155ZM124.273 23.8183C122.793 24.1084 121.392 24.7179 120.169 25.6044C119.823 25.9234 119.549 26.3134 119.366 26.7479C119.183 27.1825 119.096 27.6515 119.11 28.1229C119.11 30.5045 120.683 31.6952 123.828 31.6952C125.63 31.8139 127.418 31.3096 128.894 30.2663C129.444 29.8644 129.893 29.3379 130.202 28.7296C130.511 28.1213 130.673 27.4484 130.675 26.7654V20.9604H130.577C130.445 21.2598 130.243 21.5231 129.989 21.7285C129.433 22.0963 128.835 22.3961 128.208 22.6216C126.922 23.0986 125.608 23.4983 124.273 23.8183Z" fill="white"/>
<path d="M142.715 35.2587V9.11832H147.389V11.61H147.487C148.28 10.6189 149.3 9.8346 150.46 9.32373C151.753 8.71897 153.165 8.41374 154.591 8.43065C155.849 8.37097 157.106 8.57259 158.282 9.02288C159.459 9.47316 160.53 10.1624 161.429 11.0474C162.308 12.007 162.987 13.1336 163.426 14.3606C163.865 15.5876 164.055 16.8903 163.984 18.192V35.2587H159.185V19.5316C159.185 15.0603 157.351 12.8246 153.683 12.8246C152.033 12.7451 150.419 13.3193 149.187 14.4232C148.609 14.9963 148.159 15.6858 147.866 16.4463C147.572 17.2067 147.443 18.0209 147.487 18.835V35.2587H142.715Z" fill="white"/>
</g>
<defs>
<clipPath id="clip0_2386_92502">
<rect width="164" height="36" fill="white"/>
</clipPath>
</defs>
</svg>
