<svg width="196" height="20" viewBox="0 0 196 20" fill="none" xmlns="http://www.w3.org/2000/svg">
<path fill-rule="evenodd" clip-rule="evenodd" d="M32.0013 2.44352C31.6025 2.44352 31.2784 2.7603 31.2784 3.14923V16.8124C31.2784 17.2017 31.6025 17.5182 32.0013 17.5182H45.4098C45.8082 17.5182 46.1328 17.2017 46.1328 16.8124V3.14923C46.1328 2.7603 45.8082 2.44352 45.4098 2.44352H32.0013ZM45.4098 19.7957H32.0013C30.3162 19.7957 28.9453 18.4574 28.9453 16.8124V3.14923C28.9453 1.50423 30.3162 0.166016 32.0013 0.166016H45.4098C47.0946 0.166016 48.4658 1.50423 48.4658 3.14923V16.8124C48.4658 18.4574 47.0946 19.7957 45.4098 19.7957Z" fill="white"/>
<path fill-rule="evenodd" clip-rule="evenodd" d="M164.131 19.8303H150.041V17.5528H164.131C164.529 17.5528 164.854 17.236 164.854 16.8468V11.7193C164.854 11.3303 164.529 11.0135 163.356 11.0135H152.285C151.375 11.0135 150.004 9.67533 150.004 8.03033V3.1839C150.004 1.5389 151.375 0.200684 153.06 0.200684H166.573V2.47818H153.06C152.661 2.47818 152.337 2.79461 152.337 3.1839V8.03033C152.337 8.41961 152.661 8.73604 153.06 8.73604H164.131C165.816 8.73604 167.187 10.0743 167.187 11.7193V16.8468C167.187 18.4918 165.816 19.8303 164.131 19.8303Z" fill="white"/>
<path fill-rule="evenodd" clip-rule="evenodd" d="M123.466 19.8258H108.086V0.199707H110.419V17.5483H123.466V19.8258Z" fill="white"/>
<path fill-rule="evenodd" clip-rule="evenodd" d="M93.1253 19.8228L78.6573 3.63954V19.8431H76.3242V0.197754H78.6767L93.5109 16.7881L93.5091 0.199897H95.8421L95.8443 19.8228H93.1253Z" fill="white"/>
<path fill-rule="evenodd" clip-rule="evenodd" d="M61.2227 19.8294H63.5652V0.199707H61.2227V19.8294Z" fill="white"/>
<path fill-rule="evenodd" clip-rule="evenodd" d="M134.672 19.8278H137.015V0.197754H134.672V19.8278Z" fill="white"/>
<path fill-rule="evenodd" clip-rule="evenodd" d="M195.881 0.200968H187.666V0.197754H185.324V0.200968H177.109V2.48775H185.324V19.8295H187.666V2.48775H195.881V0.200968Z" fill="white"/>
<path fill-rule="evenodd" clip-rule="evenodd" d="M17.3522 19.7957H3.20832C1.52356 19.7957 0.152344 18.4574 0.152344 16.8124V3.14923C0.152344 1.50423 1.52356 0.166016 3.20832 0.166016H17.3522V2.44352H3.20832C2.8099 2.44352 2.48539 2.7603 2.48539 3.14923V16.8124C2.48539 17.2017 2.8099 17.5182 3.20832 17.5182H17.3522V19.7957Z" fill="white"/>
</svg>
