<svg width="149" height="39" viewBox="0 0 149 39" fill="none" xmlns="http://www.w3.org/2000/svg">
<path d="M148.869 18.9105V0.0522461H129.723L148.869 18.9105Z" fill="white"/>
<path d="M14.4718 17.6796C15.8526 17.2082 16.9148 16.501 17.6318 15.5581C18.3488 14.6151 18.7206 13.4627 18.7206 12.0745C18.7206 9.7958 17.9505 8.06713 16.4103 6.88848C14.8701 5.68365 12.6661 5.10742 9.82467 5.10742H0.371094V31.2733H10.3823C13.383 31.2733 15.6933 30.6447 17.2866 29.4137C18.8799 28.1564 19.7031 26.3754 19.7031 24.0443C19.7031 22.3942 19.2517 21.0322 18.3754 19.9583C17.4991 18.8583 16.1979 18.0987 14.4718 17.6796ZM9.61223 8.69574C11.2055 8.69574 12.4271 9.01004 13.2768 9.63865C14.1266 10.2673 14.578 11.184 14.578 12.3626C14.578 13.5675 14.1531 14.458 13.2768 15.0866C12.4271 15.7152 11.2055 16.0295 9.61223 16.0295H4.54023V8.69574H9.61223ZM10.1168 27.6064H4.54023V19.4869H10.1168C11.8428 19.4869 13.144 19.8274 14.0735 20.5346C15.0029 21.2417 15.4543 22.237 15.4543 23.5205C15.4543 24.8039 15.0029 25.8254 14.0735 26.5325C13.144 27.2659 11.8428 27.6064 10.1168 27.6064ZM32.3433 11.8388C30.9093 11.8388 29.5285 12.0221 28.2007 12.415C26.873 12.8079 25.7311 13.3579 24.722 14.1175L26.6605 17.0248C27.5103 16.4486 28.4397 16.0033 29.3957 15.689C30.3517 15.3747 31.3076 15.2176 32.2636 15.2176C33.6179 15.2176 34.6801 15.5319 35.3971 16.1343C36.1407 16.7367 36.4859 17.6272 36.4859 18.8059V19.5654H32.9275C29.8737 19.5654 27.5634 20.0893 25.9967 21.1632C24.4299 22.2632 23.6333 23.8086 23.6333 25.8254C23.6333 27.6326 24.2706 29.047 25.5187 30.1209C26.7933 31.1947 28.4663 31.7186 30.5641 31.7186C32.0246 31.7186 33.2727 31.4305 34.3084 30.828C35.344 30.2518 36.1141 29.4137 36.6452 28.3136L36.7249 28.4184V31.2209H40.3895V18.3868C40.3895 16.2652 39.699 14.6413 38.3447 13.5151C36.9904 12.3888 34.9722 11.8388 32.3433 11.8388ZM31.5201 28.6017C30.3517 28.6017 29.4222 28.3398 28.7318 27.7898C28.0414 27.2659 27.6962 26.5325 27.6962 25.642C27.6962 23.6252 29.5285 22.6037 33.2196 22.6037H36.5124V23.9133C36.5124 25.4063 36.0876 26.5587 35.2112 27.3707C34.3349 28.1826 33.1134 28.6017 31.5201 28.6017ZM56.7208 27.4755C56.1631 27.7636 55.6586 27.9993 55.2337 28.1303C54.7823 28.2612 54.3308 28.3398 53.8794 28.3398C53.1093 28.3398 52.4985 28.1041 52.0737 27.6326C51.6488 27.1611 51.4363 26.454 51.4363 25.5372V15.4271H56.9332V12.3364H51.4363V6.86229H47.5062V12.3102H43.8947V15.4009H47.5062V26.0611C47.5062 27.8683 48.0107 29.2827 48.9933 30.2518C50.0024 31.2209 51.4098 31.7186 53.2686 31.7186C54.3308 31.7186 55.2337 31.6138 56.0038 31.3781C56.7739 31.1423 57.544 30.7757 58.3406 30.2518L56.7208 27.4755ZM73.0521 27.4755C72.4944 27.7636 71.9899 27.9993 71.565 28.1303C71.1136 28.2612 70.6621 28.3398 70.2107 28.3398C69.4141 28.3398 68.8298 28.1041 68.405 27.6326C67.9801 27.1611 67.7676 26.454 67.7676 25.5372V15.4271H73.2645V12.3364H67.7676V6.86229H63.8375V12.3102H60.226V15.4009H63.8375V26.0611C63.8375 27.8683 64.3421 29.2827 65.3246 30.2518C66.3337 31.2209 67.7411 31.7186 69.5999 31.7186C70.6621 31.7186 71.565 31.6138 72.3351 31.3781C73.1052 31.1423 73.8753 30.7757 74.6719 30.2518L73.0521 27.4755ZM95.4911 21.7394C95.4911 19.775 95.0927 18.0463 94.3226 16.5534C93.5525 15.0604 92.4638 13.908 91.0564 13.0698C89.6489 12.2579 87.976 11.8388 86.0906 11.8388C84.2052 11.8388 82.5322 12.2579 81.1248 13.0698C79.7174 13.8818 78.6021 15.0604 77.832 16.5534C77.0353 18.0463 76.6636 19.775 76.6636 21.7394C76.6636 24.8039 77.5664 27.2397 79.3987 29.0208C81.231 30.8018 83.7006 31.7186 86.8607 31.7186C90.2332 31.7186 92.8355 30.8804 94.6944 29.1779L92.6231 26.454C90.9767 27.7374 89.0647 28.366 86.8607 28.366C85.108 28.366 83.7006 27.8945 82.6384 26.9516C81.5762 26.0087 80.9389 24.6991 80.7265 22.9966H95.4911V21.7394ZM86.0906 15.139C87.498 15.139 88.693 15.5843 89.6224 16.4748C90.5784 17.3653 91.1891 18.5963 91.4547 20.1417H80.7265C80.992 18.5963 81.5762 17.3653 82.5057 16.4748C83.4616 15.5843 84.6566 15.139 86.0906 15.139ZM109.379 11.8388C108.131 11.8388 107.069 12.1793 106.166 12.8603C105.263 13.5413 104.573 14.4842 104.121 15.7414V12.3364H100.404V31.2471H104.36V20.0631C104.36 18.5701 104.785 17.4177 105.635 16.6057C106.485 15.7938 107.574 15.4009 108.901 15.4009C109.618 15.4009 110.335 15.5057 111.105 15.689L111.61 12.1269C111.105 11.9436 110.362 11.8388 109.379 11.8388ZM130.145 12.3364L124.702 26.192L119.045 12.3364H114.584L122.683 30.959L121.701 33.3425C121.382 34.102 120.931 34.6521 120.4 34.9926C119.869 35.3069 119.125 35.4902 118.196 35.4902H116.124V38.738H119.072C120.718 38.738 122.019 38.3714 122.949 37.6642C123.905 36.957 124.702 35.8045 125.365 34.2068L134.447 12.3364H130.145Z" fill="white"/>
</svg>
