<svg width="169" height="72" viewBox="0 0 169 72" fill="none" xmlns="http://www.w3.org/2000/svg">
<g clip-path="url(#clip0_2386_92509)">
<path fill-rule="evenodd" clip-rule="evenodd" d="M0 14.4142C0 6.46154 6.46992 0 14.4329 0H74.013V57.5858C74.013 65.5385 67.472 72 59.5801 72H14.4329C6.46992 72 0 65.4675 0 57.5858V14.4142ZM65.6952 47.9999V51.4082L57.3056 61.4911H65.6952V64.8993H52.7554V61.4911L61.1449 51.4082H52.7554V47.9999H65.6952ZM16.7087 47.3609C18.6994 47.3609 20.4769 47.9999 21.9699 49.065V47.9289H25.7381V64.9703H21.9699V63.6922C20.2636 64.8993 18.1306 65.5384 15.7844 65.3254C11.5896 64.8993 8.17691 61.5621 7.75032 57.3727C7.18153 51.9053 11.3763 47.3609 16.7087 47.3609ZM15.5711 61.4911C18.9838 62.2011 21.9699 59.6449 21.9699 56.3786V56.3076C21.9699 53.3964 19.6237 51.0532 16.7087 51.0532C13.4382 51.0532 10.8786 54.0354 11.5896 57.4437C11.9451 59.5029 13.5804 61.065 15.5711 61.4911ZM42.3751 48.1419H43.2993C47.7074 48.426 51.1912 52.0473 51.4045 56.4496C51.4756 61.278 47.7074 65.1834 42.8016 65.3254H42.5173C40.2421 65.3254 38.1092 64.4733 36.4739 62.9822C34.8387 61.42 33.8433 59.2899 33.7722 56.9467C33.7011 54.9585 34.4121 52.9703 35.834 51.1242L42.8016 41.8224H47.2808L42.3751 48.1419ZM39.2467 60.639C40.171 61.4911 41.3797 61.9881 42.7305 61.9171C45.5745 61.8461 47.6363 59.4319 47.423 56.5916C47.423 55.1715 46.7831 53.8224 45.7878 52.8993C44.9346 52.0473 43.7259 51.6212 42.5173 51.6212H42.304C41.0242 51.6212 39.8155 52.1893 38.9623 53.1124C38.0381 54.1064 37.5404 55.4555 37.6115 56.9467C37.6826 58.3668 38.2514 59.7159 39.2467 60.639ZM28.2265 45.2307H25.8092C25.8092 45.2307 25.8092 41.8224 25.7381 41.8224H31.9947V64.8993H28.2265V45.2307Z" fill="white"/>
<path d="M78.9883 56.5916C78.9883 51.6212 82.7565 47.8579 87.8044 47.8579C91.0749 47.8579 93.9189 49.562 95.1275 52.2603L93.3501 53.3254C92.4258 51.3372 90.364 50.0591 87.8044 50.0591C84.1073 50.0591 81.1923 52.9703 81.1923 56.6626C81.1923 60.355 84.0362 63.2662 87.8044 63.2662C90.364 63.2662 92.3547 61.9171 93.4212 59.9999L95.2697 61.065C93.8478 63.6212 91.0038 65.3254 87.7333 65.3254C82.6854 65.3254 78.9883 61.562 78.9883 56.5916Z" fill="white"/>
<path d="M104.653 48V50.1302C101.951 50.1302 99.3915 51.5503 99.3915 55.6686V64.9704H97.1875V48.284H99.3915V51.0533C100.529 48.7101 102.52 48 104.653 48Z" fill="white"/>
<path d="M122.075 48.2837L114.894 66.5322C113.615 69.7275 111.126 71.9287 108.14 71.6446V69.5855C110.344 69.7985 111.837 68.3074 112.69 66.1062L113.117 65.0411L105.723 48.2837H108.069L114.326 62.2719L119.729 48.2837H122.075Z" fill="white"/>
<path d="M140.987 56.5916C140.987 61.562 137.077 65.3254 132.384 65.3254C129.398 65.3254 127.052 63.9052 125.63 61.6331V71.5739H123.426V48.2839H125.63V51.5502C127.052 49.278 129.398 47.8579 132.384 47.8579C137.077 47.8579 140.987 51.6922 140.987 56.5916ZM138.783 56.5916C138.783 52.8993 135.939 49.9881 132.171 49.9881C128.403 49.9881 125.559 52.8993 125.559 56.5916C125.559 60.2839 128.403 63.1952 132.171 63.1952C135.939 63.1952 138.783 60.2839 138.783 56.5916Z" fill="white"/>
<path d="M146.246 50.414V60.4969C146.246 63.3371 147.811 63.1241 151.081 62.9821V64.8992C146.602 65.5383 144.042 64.4732 144.042 60.4969V50.414H140.559V48.2838H144.042V44.3075L146.246 43.6685V48.2838H151.081V50.414H146.246Z" fill="white"/>
<path d="M151.438 56.5916C151.438 51.6212 155.348 47.8579 160.254 47.8579C165.159 47.8579 169.07 51.6922 169.07 56.5916C169.07 61.491 165.088 65.3254 160.254 65.3254C155.419 65.3254 151.438 61.562 151.438 56.5916ZM166.795 56.5916C166.795 52.8993 163.951 49.9881 160.183 49.9881C156.414 49.9881 153.57 52.8993 153.57 56.5916C153.57 60.2839 156.414 63.1952 160.183 63.1952C163.951 63.1952 166.795 60.2839 166.795 56.5916Z" fill="white"/>
</g>
<defs>
<clipPath id="clip0_2386_92509">
<rect width="169" height="72" fill="white"/>
</clipPath>
</defs>
</svg>
