<svg width="181" height="32" viewBox="0 0 181 32" fill="none" xmlns="http://www.w3.org/2000/svg">
<path d="M36.4568 8.9338C29.8948 8.9338 24.7675 13.8739 24.7675 20.4872C24.7675 27.1005 29.7652 31.9984 36.4568 31.9984C43.1484 31.9984 48.233 27.016 48.233 20.445C48.233 13.9162 43.2353 8.9338 36.4568 8.9338ZM36.5011 27.2323C32.7642 27.2323 30.0259 24.3541 30.0259 20.4888C30.0259 16.5797 32.72 13.7031 36.4568 13.7031C40.2379 13.7031 42.9746 16.6236 42.9746 20.4888C42.9746 24.3541 40.2379 27.2323 36.5011 27.2323ZM49.6662 13.96H52.9256V31.5707H58.1398V9.3631H49.6662V13.96ZM11.6451 13.7015C14.3833 13.7015 16.5559 15.3764 17.3807 17.8675H22.8999C21.8997 12.5421 17.4676 8.9338 11.6893 8.9338C5.12729 8.9338 0 13.8739 0 20.4888C0 27.1038 4.99777 32 11.6893 32C17.338 32 21.857 28.3917 22.8572 23.0223H17.3807C16.5986 25.5135 14.426 27.2323 11.6877 27.2323C7.90657 27.2323 5.25682 24.3541 5.25682 20.4888C5.25848 16.5797 7.86558 13.7015 11.6451 13.7015ZM148.739 18.3407L144.915 17.783C143.091 17.5261 141.787 16.9245 141.787 15.5065C141.787 13.9601 143.483 13.1876 145.785 13.1876C148.305 13.1876 149.913 14.2609 150.261 16.0219H155.302C154.736 11.555 151.26 8.9354 145.916 8.9354C140.397 8.9354 136.747 11.7275 136.747 15.6789C136.747 19.4579 139.137 21.6499 143.96 22.3361L147.783 22.8939C149.653 23.1508 150.695 23.8825 150.695 25.2565C150.695 27.0176 148.871 27.7477 146.35 27.7477C143.264 27.7477 141.526 26.5021 141.266 24.6126H136.138C136.617 28.951 140.049 32 146.306 32C151.999 32 155.778 29.4226 155.778 24.998C155.778 21.0466 153.042 18.9847 148.739 18.3407ZM55.5327 0.214645C53.6209 0.214645 52.1865 1.5887 52.1865 3.47822C52.1865 5.36775 53.6194 6.7418 55.5327 6.7418C57.4446 6.7418 58.8795 5.36775 58.8795 3.47822C58.8795 1.5887 57.4446 0.214645 55.5327 0.214645ZM132.054 16.9667C132.054 12.1567 129.099 8.9354 122.842 8.9354C116.933 8.9354 113.63 11.8998 112.978 16.4529H118.149C118.41 14.6918 119.8 13.2316 122.755 13.2316C125.407 13.2316 126.71 14.391 126.71 15.809C126.71 17.6562 124.319 18.1278 121.365 18.4286C117.367 18.8579 112.414 20.2319 112.414 25.3867C112.414 29.382 115.412 31.9577 120.193 31.9577C123.929 31.9577 126.275 30.4113 127.45 27.9624C127.624 30.1528 129.275 31.5707 131.578 31.5707H134.62V26.9753H132.055V16.9667H132.054ZM126.926 22.5508C126.926 25.5151 124.319 27.7055 121.146 27.7055C119.191 27.7055 117.54 26.8892 117.54 25.172C117.54 22.9817 120.191 22.38 122.624 22.1231C124.971 21.9085 126.274 21.393 126.926 20.4043V22.5508ZM99.247 8.9338C96.3349 8.9338 93.9017 10.1371 92.1638 12.1551V0H86.9496V31.5707H92.0766V28.6502C93.8145 30.7544 96.2925 32 99.247 32C105.504 32 110.241 27.1038 110.241 20.4888C110.241 13.8739 105.417 8.9338 99.247 8.9338ZM98.465 27.2323C94.728 27.2323 91.9899 24.3541 91.9899 20.4888C91.9899 16.6236 94.7709 13.7031 98.5074 13.7031C102.289 13.7031 104.938 16.5813 104.938 20.4888C104.938 24.3541 102.201 27.2323 98.465 27.2323ZM74.4777 8.9338C71.0886 8.9338 68.8718 10.3079 67.5685 12.2413V9.3631H62.3966V31.5691H67.6108V19.5002C67.6108 16.1065 69.7833 13.7015 72.999 13.7015C75.9978 13.7015 77.8653 15.8057 77.8653 18.8563V31.5707H83.0795V18.4708C83.0815 12.8852 80.1709 8.9338 74.4777 8.9338ZM180.634 19.7588C180.634 13.4023 175.942 8.9354 169.64 8.9354C162.949 8.9354 158.038 13.9178 158.038 20.4888C158.038 27.4046 163.296 32 169.728 32C175.16 32 179.418 28.821 180.503 24.3118H175.071C174.289 26.2875 172.377 27.4046 169.813 27.4046C166.466 27.4046 163.946 25.3427 163.381 21.7344H180.633V19.7588H180.634ZM163.687 18.0399C164.513 14.9471 166.859 13.4446 169.554 13.4446C172.508 13.4446 174.768 15.1194 175.289 18.0399H163.687Z" fill="white"/>
</svg>
