<svg width="148" height="148" viewBox="0 0 148 148" fill="none" xmlns="http://www.w3.org/2000/svg">
<circle cx="74" cy="74" r="73.5" stroke="white"/>
<circle cx="74" cy="74" r="47.5" stroke="white"/>
<path d="M93.5 74C93.5 87.2053 91.2688 99.137 87.6806 107.749C85.886 112.056 83.7619 115.509 81.4287 117.877C79.0973 120.244 76.5872 121.5 74 121.5C71.4128 121.5 68.9027 120.244 66.5713 117.877C64.2381 115.509 62.114 112.056 60.3194 107.749C56.7312 99.137 54.5 87.2053 54.5 74C54.5 60.7947 56.7312 48.863 60.3194 40.2512C62.114 35.9442 64.2381 32.4914 66.5713 30.123C68.9027 27.7563 71.4128 26.5 74 26.5C76.5872 26.5 79.0973 27.7563 81.4287 30.123C83.7619 32.4914 85.886 35.9442 87.6806 40.2512C91.2688 48.863 93.5 60.7947 93.5 74Z" stroke="white"/>
<path d="M74 85.5C60.7737 85.5 48.8164 84.1593 40.1801 82.0002C35.8582 80.9197 32.3961 79.6411 30.0265 78.2405C27.6234 76.8201 26.5 75.3709 26.5 74C26.5 72.6291 27.6234 71.1798 30.0265 69.7595C32.3961 68.3589 35.8582 67.0803 40.1801 65.9998C48.8164 63.8407 60.7737 62.5 74 62.5C87.2263 62.5 99.1836 63.8407 107.82 65.9998C112.142 67.0803 115.604 68.3589 117.974 69.7595C120.377 71.1799 121.5 72.6291 121.5 74C121.5 75.3709 120.377 76.8201 117.974 78.2405C115.604 79.6411 112.142 80.9197 107.82 82.0002C99.1836 84.1593 87.2263 85.5 74 85.5Z" stroke="white"/>
</svg>
