<svg width="322" height="162" viewBox="0 0 322 162" fill="none" xmlns="http://www.w3.org/2000/svg">
<path d="M161.1 81C161.1 81 125.262 161 81.05 161C36.8384 161 1 125.184 1 81C1 36.816 36.8384 1 81.05 1C125.262 1 161.1 81 161.1 81Z" stroke="white" stroke-miterlimit="10"/>
<path d="M161.026 81C161.026 81 134.162 161 101.026 161C67.8901 161 41.0261 125.184 41.0261 81C41.0261 36.816 67.8901 1 101.026 1C134.162 1 161.026 81 161.026 81Z" stroke="white" stroke-miterlimit="10"/>
<path d="M161 81C161 81 129.659 161 91 161C52.3413 161 21 125.184 21 81C21 36.816 52.3413 1 91 1C129.659 1 161 81 161 81Z" stroke="white" stroke-miterlimit="10"/>
<path d="M161.052 81C161.052 81 143.144 161 121.052 161C98.9602 161 81.0522 125.184 81.0522 81C81.0522 36.816 98.9602 1 121.052 1C143.144 1 161.052 81 161.052 81Z" stroke="white" stroke-miterlimit="10"/>
<path d="M161 81C161 81 138.615 161 111 161C83.385 161 61 125.184 61 81C61 36.816 83.385 1 111 1C138.615 1 161 81 161 81Z" stroke="white" stroke-miterlimit="10"/>
<path d="M161.078 81C161.078 81 152.122 161 141.078 161C130.034 161 121.078 125.184 121.078 81C121.078 36.816 130.034 1 141.078 1C152.122 1 161.078 81 161.078 81Z" stroke="white" stroke-miterlimit="10"/>
<path d="M161 81C161 81 147.566 161 131 161C114.434 161 101 125.184 101 81C101 36.816 114.434 1 131 1C147.566 1 161 81 161 81Z" stroke="white" stroke-miterlimit="10"/>
<path d="M161 81C161 81 156.522 161 151 161C145.478 161 141 125.184 141 81C141 36.816 145.478 1 151 1C156.522 1 161 81 161 81Z" stroke="white" stroke-miterlimit="10"/>
<path d="M161.302 81C161.302 81 161.213 161 161.102 161C160.992 161 160.902 125.184 160.902 81C160.902 36.816 160.992 1 161.102 1C161.213 1 161.302 81 161.302 81Z" stroke="white" stroke-miterlimit="10"/>
<path d="M161.202 81C161.202 81 197.041 161 241.252 161C285.464 161 321.302 125.184 321.302 81C321.302 36.816 285.464 1 241.252 1C197.041 1 161.202 81 161.202 81Z" stroke="white" stroke-miterlimit="10"/>
<path d="M161.276 81C161.276 81 188.14 161 221.276 161C254.412 161 281.276 125.184 281.276 81C281.276 36.816 254.412 1 221.276 1C188.14 1 161.276 81 161.276 81Z" stroke="white" stroke-miterlimit="10"/>
<path d="M161.302 81C161.302 81 192.644 161 231.302 161C269.961 161 301.302 125.184 301.302 81C301.302 36.816 269.961 1 231.302 1C192.644 1 161.302 81 161.302 81Z" stroke="white" stroke-miterlimit="10"/>
<path d="M161.25 81C161.25 81 179.158 161 201.25 161C223.342 161 241.25 125.184 241.25 81C241.25 36.816 223.342 1 201.25 1C179.158 1 161.25 81 161.25 81Z" stroke="white" stroke-miterlimit="10"/>
<path d="M161.302 81C161.302 81 183.687 161 211.302 161C238.917 161 261.302 125.184 261.302 81C261.302 36.816 238.917 1 211.302 1C183.687 1 161.302 81 161.302 81Z" stroke="white" stroke-miterlimit="10"/>
<path d="M161.224 81C161.224 81 170.18 161 181.224 161C192.268 161 201.224 125.184 201.224 81C201.224 36.816 192.268 1 181.224 1C170.18 1 161.224 81 161.224 81Z" stroke="white" stroke-miterlimit="10"/>
<path d="M161.302 81C161.302 81 174.736 161 191.302 161C207.868 161 221.302 125.184 221.302 81C221.302 36.816 207.868 1 191.302 1C174.736 1 161.302 81 161.302 81Z" stroke="white" stroke-miterlimit="10"/>
<path d="M161.302 81C161.302 81 165.78 161 171.302 161C176.824 161 181.302 125.184 181.302 81C181.302 36.816 176.824 1 171.302 1C165.78 1 161.302 81 161.302 81Z" stroke="white" stroke-miterlimit="10"/>
</svg>
