<svg width="80" height="80" viewBox="0 0 80 80" fill="none" xmlns="http://www.w3.org/2000/svg">
<circle cx="40" cy="40" r="39.5" stroke="white"/>
<path d="M45.9865 20.5406C45.9865 23.8468 43.3063 26.5271 40 26.5271C36.6938 26.5271 34.0135 23.8468 34.0135 20.5406C34.0135 17.2343 36.6938 14.5541 40 14.5541C43.3063 14.5541 45.9865 17.2343 45.9865 20.5406Z" stroke="white"/>
<path d="M45.9865 59.4595C45.9865 62.7658 43.3063 65.446 40 65.446C36.6938 65.446 34.0135 62.7658 34.0135 59.4595C34.0135 56.1533 36.6938 53.473 40 53.473C43.3063 53.473 45.9865 56.1533 45.9865 59.4595Z" stroke="white"/>
<line x1="39.9595" y1="27.027" x2="39.9595" y2="52.9729" stroke="white"/>
<path d="M59.4594 45.9865C56.1532 45.9865 53.473 43.3063 53.473 40C53.473 36.6938 56.1532 34.0135 59.4594 34.0135C62.7657 34.0135 65.4459 36.6938 65.4459 40C65.4459 43.3063 62.7657 45.9865 59.4594 45.9865Z" stroke="white"/>
<path d="M20.5406 45.9865C17.2343 45.9865 14.5541 43.3063 14.5541 40C14.5541 36.6938 17.2343 34.0135 20.5406 34.0135C23.8468 34.0135 26.527 36.6938 26.527 40C26.527 43.3063 23.8468 45.9865 20.5406 45.9865Z" stroke="white"/>
<line x1="52.973" y1="40.5" x2="27.027" y2="40.5" stroke="white"/>
</svg>
